<?xml version="1.0" encoding="UTF-8"?><svg id="b" xmlns="http://www.w3.org/2000/svg" xmlns:xlink="http://www.w3.org/1999/xlink" viewBox="0 0 90 30"><defs><radialGradient id="c" cx="-5324.64" cy="399.28" fx="-5324.64" fy="399.28" r="22.57" gradientTransform="translate(1873.56 155.73) scale(.35 -.35)" gradientUnits="userSpaceOnUse"><stop offset="0" stop-color="#fff"/><stop offset=".11" stop-color="#fff" stop-opacity=".98"/><stop offset=".23" stop-color="#fff" stop-opacity=".93"/><stop offset=".36" stop-color="#fff" stop-opacity=".84"/><stop offset=".5" stop-color="#fff" stop-opacity=".72"/><stop offset=".64" stop-color="#fff" stop-opacity=".56"/><stop offset=".78" stop-color="#fff" stop-opacity=".36"/><stop offset=".92" stop-color="#fff" stop-opacity=".14"/><stop offset="1" stop-color="#fff" stop-opacity="0"/></radialGradient><radialGradient id="d" cx="10692.49" cy="-4608.71" fx="10692.49" fy="-4608.71" r=".05" gradientTransform="translate(4308.17 10842.01) rotate(-135) scale(1 -1)" gradientUnits="userSpaceOnUse"><stop offset="0" stop-color="#fff"/><stop offset="1" stop-color="#fff" stop-opacity="0"/></radialGradient><radialGradient id="e" cx="8.58" cy="9.92" fx="8.58" fy="9.92" r=".05" gradientTransform="translate(0 32) scale(1 -1)" xlink:href="#d"/><radialGradient id="f" cx="9.84" cy="10.79" fx="9.84" fy="10.79" r=".05" gradientTransform="translate(0 32) scale(1 -1)" xlink:href="#d"/><radialGradient id="g" cx="12.74" cy="9.69" fx="12.74" fy="9.69" r=".05" gradientTransform="translate(0 32) scale(1 -1)" xlink:href="#d"/><radialGradient id="h" cx="12.88" cy="10.38" fx="12.88" fy="10.38" r=".05" gradientTransform="translate(0 32) scale(1 -1)" xlink:href="#d"/><radialGradient id="i" cx="9.58" cy="13.96" fx="9.58" fy="13.96" r=".05" gradientTransform="translate(0 32) scale(1 -1)" xlink:href="#d"/><radialGradient id="j" cx="10.5" cy="14.76" fx="10.5" fy="14.76" r=".05" gradientTransform="translate(0 32) scale(1 -1)" xlink:href="#d"/><radialGradient id="k" cx="8.62" cy="15.63" fx="8.62" fy="15.63" r=".05" gradientTransform="translate(0 32) scale(1 -1)" xlink:href="#d"/><radialGradient id="l" cx="9.01" cy="16.14" fx="9.01" fy="16.14" r=".05" gradientTransform="translate(0 32) scale(1 -1)" xlink:href="#d"/><radialGradient id="m" cx="8.03" cy="18.53" fx="8.03" fy="18.53" r=".05" gradientTransform="translate(0 32) scale(1 -1)" xlink:href="#d"/><radialGradient id="n" cx="2.03" cy="13.51" fx="2.03" fy="13.51" r=".05" gradientTransform="translate(0 32) scale(1 -1)" xlink:href="#d"/><radialGradient id="o" cx="5.38" cy="18.12" fx="5.38" fy="18.12" r=".05" gradientTransform="translate(0 32) scale(1 -1)" xlink:href="#d"/><radialGradient id="p" cx="8.08" cy="15.95" fx="8.08" fy="15.95" r=".1" gradientTransform="translate(0 32) scale(1 -1)" xlink:href="#d"/><radialGradient id="q" cx="9.26" cy="15.73" fx="9.26" fy="15.73" r=".1" gradientTransform="translate(0 32) scale(1 -1)" xlink:href="#d"/><radialGradient id="r" cx="3.96" cy="16.4" fx="3.96" fy="16.4" r=".1" gradientTransform="translate(0 32) scale(1 -1)" xlink:href="#d"/><radialGradient id="s" cx="5.57" cy="17.79" fx="5.57" fy="17.79" r=".1" gradientTransform="translate(0 32) scale(1 -1)" xlink:href="#d"/><radialGradient id="t" cx="7.64" cy="18.49" fx="7.64" fy="18.49" r=".1" gradientTransform="translate(0 32) scale(1 -1)" xlink:href="#d"/><radialGradient id="u" cx="7.75" cy="19.36" fx="7.75" fy="19.36" r=".1" gradientTransform="translate(0 32) scale(1 -1)" xlink:href="#d"/><radialGradient id="v" cx="9.73" cy="10.4" fx="9.73" fy="10.4" r=".1" gradientTransform="translate(0 32) scale(1 -1)" xlink:href="#d"/><radialGradient id="w" cx="9.49" cy="13.14" fx="9.49" fy="13.14" r=".1" gradientTransform="translate(0 32) scale(1 -1)" xlink:href="#d"/><radialGradient id="x" cx="10.13" cy="13.62" fx="10.13" fy="13.62" r=".1" gradientTransform="translate(0 32) scale(1 -1)" xlink:href="#d"/><radialGradient id="y" cx="8.54" cy="9.52" fx="8.54" fy="9.52" r=".1" gradientTransform="translate(0 32) scale(1 -1)" xlink:href="#d"/><radialGradient id="z" cx="2" cy="19.93" fx="2" fy="19.93" r=".05" gradientTransform="translate(0 32) scale(1 -1)" xlink:href="#d"/><radialGradient id="aa" cx="3.26" cy="20.8" fx="3.26" fy="20.8" r=".05" gradientTransform="translate(0 32) scale(1 -1)" xlink:href="#d"/><radialGradient id="ab" cx="6.16" cy="19.69" fx="6.16" fy="19.69" r=".05" gradientTransform="translate(0 32) scale(1 -1)" xlink:href="#d"/><radialGradient id="ac" cx="6.3" cy="20.39" fx="6.3" fy="20.39" r=".05" gradientTransform="translate(0 32) scale(1 -1)" xlink:href="#d"/><radialGradient id="ad" cx="4.79" cy="10.69" fx="4.79" fy="10.69" r=".05" gradientTransform="translate(0 32) scale(1 -1)" xlink:href="#d"/><radialGradient id="ae" cx="5.49" cy="11.13" fx="5.49" fy="11.13" r=".05" gradientTransform="translate(0 32) scale(1 -1)" xlink:href="#d"/><radialGradient id="af" cx="4.61" cy="11.42" fx="4.61" fy="11.42" r=".05" gradientTransform="translate(0 32) scale(1 -1)" xlink:href="#d"/><radialGradient id="ag" cx="6.59" cy="12.93" fx="6.59" fy="12.93" r=".05" gradientTransform="translate(0 32) scale(1 -1)" xlink:href="#d"/><radialGradient id="ah" cx="7.02" cy="16.3" fx="7.02" fy="16.3" r=".05" gradientTransform="translate(0 32) scale(1 -1)" xlink:href="#d"/><radialGradient id="ai" cx="6.33" cy="16.83" fx="6.33" fy="16.83" r=".05" gradientTransform="translate(0 32) scale(1 -1)" xlink:href="#d"/><radialGradient id="aj" cx="6.94" cy="17.16" fx="6.94" fy="17.16" r=".05" gradientTransform="translate(0 32) scale(1 -1)" xlink:href="#d"/><radialGradient id="ak" cx="3.15" cy="20.4" fx="3.15" fy="20.4" r=".1" gradientTransform="translate(0 32) scale(1 -1)" xlink:href="#d"/><radialGradient id="al" cx="6.58" cy="13.58" fx="6.58" fy="13.58" r=".1" gradientTransform="translate(0 32) scale(1 -1)" xlink:href="#d"/><radialGradient id="am" cx="4.31" cy="11.03" fx="4.31" fy="11.03" r=".1" gradientTransform="translate(0 32) scale(1 -1)" xlink:href="#d"/><radialGradient id="an" cx="6.34" cy="17.25" fx="6.34" fy="17.25" r=".1" gradientTransform="translate(0 32) scale(1 -1)" xlink:href="#d"/><radialGradient id="ao" cx="1.96" cy="19.53" fx="1.96" fy="19.53" r=".1" gradientTransform="translate(0 32) scale(1 -1)" xlink:href="#d"/><radialGradient id="ap" cx="3.78" cy="21.88" fx="3.78" fy="21.88" r=".05" gradientTransform="translate(0 32) scale(1 -1)" xlink:href="#d"/><radialGradient id="aq" cx="4.55" cy="20.56" fx="4.55" fy="20.56" r=".05" gradientTransform="translate(0 32) scale(1 -1)" xlink:href="#d"/><radialGradient id="ar" cx="3.22" cy="17.75" fx="3.22" fy="17.75" r=".05" gradientTransform="translate(0 32) scale(1 -1)" xlink:href="#d"/><radialGradient id="as" cx="3.9" cy="17.57" fx="3.9" fy="17.57" r=".05" gradientTransform="translate(0 32) scale(1 -1)" xlink:href="#d"/><radialGradient id="at" cx="7.73" cy="20.57" fx="7.73" fy="20.57" r=".05" gradientTransform="translate(0 32) scale(1 -1)" xlink:href="#d"/><radialGradient id="au" cx="8.45" cy="19.59" fx="8.45" fy="19.59" r=".05" gradientTransform="translate(0 32) scale(1 -1)" xlink:href="#d"/><radialGradient id="av" cx="9.46" cy="21.4" fx="9.46" fy="21.4" r=".05" gradientTransform="translate(0 32) scale(1 -1)" xlink:href="#d"/><radialGradient id="aw" cx="9.94" cy="20.97" fx="9.94" fy="20.97" r=".05" gradientTransform="translate(0 32) scale(1 -1)" xlink:href="#d"/><radialGradient id="ax" cx="12.4" cy="21.76" fx="12.4" fy="21.76" r=".05" gradientTransform="translate(0 32) scale(1 -1)" xlink:href="#d"/><radialGradient id="ay" cx="12.2" cy="24.43" fx="12.2" fy="24.43" r=".05" gradientTransform="translate(0 32) scale(1 -1)" xlink:href="#d"/><radialGradient id="az" cx="9.83" cy="21.91" fx="9.83" fy="21.91" r=".1" gradientTransform="translate(0 32) scale(1 -1)" xlink:href="#d"/><radialGradient id="ba" cx="9.52" cy="20.76" fx="9.52" fy="20.76" r=".1" gradientTransform="translate(0 32) scale(1 -1)" xlink:href="#d"/><radialGradient id="bb" cx="12.4" cy="22.15" fx="12.4" fy="22.15" r=".1" gradientTransform="translate(0 32) scale(1 -1)" xlink:href="#d"/><radialGradient id="bc" cx="13.26" cy="21.97" fx="13.26" fy="21.97" r=".1" gradientTransform="translate(0 32) scale(1 -1)" xlink:href="#d"/><radialGradient id="bd" cx="4.16" cy="20.7" fx="4.16" fy="20.7" r=".1" gradientTransform="translate(0 32) scale(1 -1)" xlink:href="#d"/><radialGradient id="be" cx="6.92" cy="20.72" fx="6.92" fy="20.72" r=".1" gradientTransform="translate(0 32) scale(1 -1)" xlink:href="#d"/><radialGradient id="bf" cx="7.34" cy="20.05" fx="7.34" fy="20.05" r=".1" gradientTransform="translate(0 32) scale(1 -1)" xlink:href="#d"/><radialGradient id="bg" cx="3.39" cy="21.95" fx="3.39" fy="21.95" r=".1" gradientTransform="translate(0 32) scale(1 -1)" xlink:href="#d"/><radialGradient id="bh" cx="15.42" cy="11.55" fx="15.42" fy="11.55" r=".05" gradientTransform="translate(0 32) scale(1 -1)" xlink:href="#d"/><radialGradient id="bi" cx="15.65" cy="17.08" fx="15.65" fy="17.08" r=".05" gradientTransform="translate(0 32) scale(1 -1)" xlink:href="#d"/><radialGradient id="bj" cx="16.59" cy="16.12" fx="16.59" fy="16.12" r=".05" gradientTransform="translate(0 32) scale(1 -1)" xlink:href="#d"/><radialGradient id="bk" cx="13.11" cy="11.29" fx="13.11" fy="11.29" r=".05" gradientTransform="translate(0 32) scale(1 -1)" xlink:href="#d"/><radialGradient id="bl" cx="11.82" cy="10.48" fx="11.82" fy="10.48" r=".05" gradientTransform="translate(0 32) scale(1 -1)" xlink:href="#d"/><radialGradient id="bm" cx="8.96" cy="11.71" fx="8.96" fy="11.71" r=".05" gradientTransform="translate(0 32) scale(1 -1)" xlink:href="#d"/><radialGradient id="bn" cx="8.8" cy="11.03" fx="8.8" fy="11.03" r=".05" gradientTransform="translate(0 32) scale(1 -1)" xlink:href="#d"/><radialGradient id="bo" cx="11.93" cy="7.3" fx="11.93" fy="7.3" r=".05" gradientTransform="translate(0 32) scale(1 -1)" xlink:href="#d"/><radialGradient id="bp" cx="19.32" cy="16.89" fx="19.32" fy="16.89" r=".05" gradientTransform="translate(0 32) scale(1 -1)" xlink:href="#d"/><radialGradient id="bq" cx="18.67" cy="16.41" fx="18.67" fy="16.41" r=".05" gradientTransform="translate(0 32) scale(1 -1)" xlink:href="#d"/><radialGradient id="br" cx="10.74" cy="20.64" fx="10.74" fy="20.64" r=".05" gradientTransform="translate(0 32) scale(1 -1)" xlink:href="#d"/><radialGradient id="bs" cx="10.01" cy="20.24" fx="10.01" fy="20.24" r=".05" gradientTransform="translate(0 32) scale(1 -1)" xlink:href="#d"/><radialGradient id="bt" cx="10.88" cy="19.91" fx="10.88" fy="19.91" r=".05" gradientTransform="translate(0 32) scale(1 -1)" xlink:href="#d"/><radialGradient id="bu" cx="8.84" cy="18.49" fx="8.84" fy="18.49" r=".05" gradientTransform="translate(0 32) scale(1 -1)" xlink:href="#d"/><radialGradient id="bv" cx="8.26" cy="15.14" fx="8.26" fy="15.14" r=".05" gradientTransform="translate(0 32) scale(1 -1)" xlink:href="#d"/><radialGradient id="bw" cx="8.92" cy="14.58" fx="8.92" fy="14.58" r=".05" gradientTransform="translate(0 32) scale(1 -1)" xlink:href="#d"/><radialGradient id="bx" cx="8.3" cy="14.27" fx="8.3" fy="14.27" r=".05" gradientTransform="translate(0 32) scale(1 -1)" xlink:href="#d"/><radialGradient id="by" cx="15.91" cy="17.9" fx="15.91" fy="17.9" r=".05" gradientTransform="translate(0 32) scale(1 -1)" xlink:href="#d"/><radialGradient id="bz" cx="18.08" cy="11.9" fx="18.08" fy="11.9" r=".1" gradientTransform="translate(0 32) scale(1 -1)" xlink:href="#d"/><radialGradient id="ca" cx="11.94" cy="10.87" fx="11.94" fy="10.87" r=".1" gradientTransform="translate(0 32) scale(1 -1)" xlink:href="#d"/><radialGradient id="cb" cx="12.06" cy="8.12" fx="12.06" fy="8.12" r=".1" gradientTransform="translate(0 32) scale(1 -1)" xlink:href="#d"/><radialGradient id="cc" cx="11.4" cy="7.67" fx="11.4" fy="7.67" r=".1" gradientTransform="translate(0 32) scale(1 -1)" xlink:href="#d"/><radialGradient id="cd" cx="8.81" cy="17.84" fx="8.81" fy="17.84" r=".1" gradientTransform="translate(0 32) scale(1 -1)" xlink:href="#d"/><radialGradient id="ce" cx="11.19" cy="20.29" fx="11.19" fy="20.29" r=".1" gradientTransform="translate(0 32) scale(1 -1)" xlink:href="#d"/><radialGradient id="cf" cx="15.67" cy="17.66" fx="15.67" fy="17.66" r=".1" gradientTransform="translate(0 32) scale(1 -1)" xlink:href="#d"/><radialGradient id="cg" cx="18.58" cy="16.98" fx="18.58" fy="16.98" r=".1" gradientTransform="translate(0 32) scale(1 -1)" xlink:href="#d"/><radialGradient id="ch" cx="8.89" cy="14.16" fx="8.89" fy="14.16" r=".1" gradientTransform="translate(0 32) scale(1 -1)" xlink:href="#d"/><radialGradient id="ci" cx="19.34" cy="14.52" fx="19.34" fy="14.52" r=".1" gradientTransform="translate(0 32) scale(1 -1)" xlink:href="#d"/><radialGradient id="cj" cx="16.93" cy="12.76" fx="16.93" fy="12.76" r=".1" gradientTransform="translate(0 32) scale(1 -1)" xlink:href="#d"/><radialGradient id="ck" cx="13.17" cy="11.69" fx="13.17" fy="11.69" r=".1" gradientTransform="translate(0 32) scale(1 -1)" xlink:href="#d"/><radialGradient id="cl" cx="152.31" cy="-8841.77" fx="152.31" fy="-8841.77" r=".05" gradientTransform="translate(8848.83 -137.44) rotate(90) scale(1 -1)" xlink:href="#d"/><radialGradient id="cm" cx="152.04" cy="-8843.27" fx="152.04" fy="-8843.27" r=".05" gradientTransform="translate(8848.83 -137.44) rotate(90) scale(1 -1)" xlink:href="#d"/><radialGradient id="cn" cx="149.2" cy="-8844.55" fx="149.2" fy="-8844.55" r=".05" gradientTransform="translate(8848.83 -137.44) rotate(90) scale(1 -1)" xlink:href="#d"/><radialGradient id="co" cx="149.6" cy="-8845.13" fx="149.6" fy="-8845.13" r=".05" gradientTransform="translate(8848.83 -137.44) rotate(90) scale(1 -1)" xlink:href="#d"/><radialGradient id="cp" cx="143.82" cy="-8837.21" fx="143.82" fy="-8837.21" r=".05" gradientTransform="translate(8848.83 -137.44) rotate(90) scale(1 -1)" xlink:href="#d"/><radialGradient id="cq" cx="143.62" cy="-8838.01" fx="143.62" fy="-8838.01" r=".05" gradientTransform="translate(8848.83 -137.44) rotate(90) scale(1 -1)" xlink:href="#d"/><radialGradient id="cr" cx="144.45" cy="-8837.6" fx="144.45" fy="-8837.6" r=".05" gradientTransform="translate(8848.83 -137.44) rotate(90) scale(1 -1)" xlink:href="#d"/><radialGradient id="cs" cx="144.12" cy="-8840.06" fx="144.12" fy="-8840.06" r=".05" gradientTransform="translate(8848.83 -137.44) rotate(90) scale(1 -1)" xlink:href="#d"/><radialGradient id="ct" cx="146.2" cy="-8842.75" fx="146.2" fy="-8842.75" r=".05" gradientTransform="translate(8848.83 -137.44) rotate(90) scale(1 -1)" xlink:href="#d"/><radialGradient id="cu" cx="147.06" cy="-8842.64" fx="147.06" fy="-8842.64" r=".05" gradientTransform="translate(8848.83 -137.44) rotate(90) scale(1 -1)" xlink:href="#d"/><radialGradient id="cv" cx="146.87" cy="-8843.31" fx="146.87" fy="-8843.31" r=".05" gradientTransform="translate(8848.83 -137.44) rotate(90) scale(1 -1)" xlink:href="#d"/><radialGradient id="cw" cx="151.84" cy="-8842.92" fx="151.84" fy="-8842.92" r=".1" gradientTransform="translate(8848.83 -137.44) rotate(90) scale(1 -1)" xlink:href="#d"/><radialGradient id="cx" cx="144.59" cy="-8840.52" fx="144.59" fy="-8840.52" r=".1" gradientTransform="translate(8848.83 -137.44) rotate(90) scale(1 -1)" xlink:href="#d"/><radialGradient id="cy" cx="144.39" cy="-8837.11" fx="144.39" fy="-8837.11" r=".1" gradientTransform="translate(8848.83 -137.44) rotate(90) scale(1 -1)" xlink:href="#d"/><radialGradient id="cz" cx="147.35" cy="-8842.94" fx="147.35" fy="-8842.94" r=".1" gradientTransform="translate(8848.83 -137.44) rotate(90) scale(1 -1)" xlink:href="#d"/><radialGradient id="da" cx="152.06" cy="-8841.46" fx="152.06" fy="-8841.46" r=".1" gradientTransform="translate(8848.83 -137.44) rotate(90) scale(1 -1)" xlink:href="#d"/><linearGradient id="db" x1="7.96" y1="20.27" x2="19.27" y2="20.27" gradientTransform="translate(0 32) scale(1 -1)" gradientUnits="userSpaceOnUse"><stop offset="0" stop-color="#bb2126" stop-opacity=".7"/><stop offset="0" stop-color="#b62025" stop-opacity=".7"/><stop offset="0" stop-color="#a41e23" stop-opacity=".7"/><stop offset=".02" stop-color="#8c1922" stop-opacity=".7"/><stop offset=".23" stop-color="#91212c" stop-opacity=".67"/><stop offset=".44" stop-color="#a1424d" stop-opacity=".57"/><stop offset=".66" stop-color="#bd7a80" stop-opacity=".42"/><stop offset=".88" stop-color="#e4c8ca" stop-opacity=".2"/><stop offset="1" stop-color="#fff" stop-opacity=".05"/></linearGradient><linearGradient id="dc" x1="5.89" y1="13.42" x2="9.88" y2="13.42" gradientTransform="translate(0 32) scale(1 -1)" gradientUnits="userSpaceOnUse"><stop offset="0" stop-color="#fff" stop-opacity=".9"/><stop offset=".18" stop-color="#f8f7e4" stop-opacity=".68"/><stop offset=".39" stop-color="#f3f4c8" stop-opacity=".44"/><stop offset=".59" stop-color="#eeedaf" stop-opacity=".25"/><stop offset=".77" stop-color="#eaea9e" stop-opacity=".11"/><stop offset=".91" stop-color="#e9e993" stop-opacity=".03"/><stop offset="1" stop-color="#e9e991" stop-opacity="0"/></linearGradient></defs><circle cx="10.76" cy="15.09" r="10.57" style="fill:#fff; stroke-width:0px;"/><path d="M20.48,16.18c-.09.82-.29,1.64-.59,2.42-.48,1.24-1.21,2.4-2.21,3.4-.22.22-.46.43-.7.63-.7.58-1.47,1.05-2.27,1.4-.56.25-1.13.44-1.71.57-2.14.5-4.42.27-6.44-.7-.97-.47-1.89-1.1-2.69-1.91-1.18-1.18-1.99-2.58-2.44-4.07-.05-.17-.1-.33-.14-.5-.06-.24-.11-.47-.15-.71-.16-.94-.18-1.9-.06-2.84.01-.11.03-.22.05-.34.21-1.31.68-2.58,1.42-3.73.11-.17.23-.34.35-.51.24-.32.5-.63.78-.93.06-.06.12-.12.18-.19,1.63-1.63,3.7-2.56,5.82-2.8.69-.08,1.38-.08,2.07-.01,2.16.22,4.27,1.15,5.92,2.81,2.18,2.18,3.12,5.14,2.8,7.99h0Z" style="fill:#181631; stroke-width:0px;"/><circle cx="9.46" cy="15.95" r="7.94" style="fill:url(#c); stroke-width:0px;"/><path d="M16.98,22.63c-.7.58-1.47,1.05-2.27,1.4-.56.25-1.13.44-1.71.57-2.14.5-4.42.27-6.44-.7-.97-.47-1.89-1.1-2.69-1.91-1.18-1.18-1.99-2.58-2.44-4.07-.05-.17-.1-.33-.14-.5-.06-.24-.11-.47-.15-.71-.16-.94-.18-1.9-.06-2.84.01-.11.03-.22.05-.34.21-1.31.68-2.58,1.42-3.73.11-.17.23-.34.35-.51.24-.32.5-.63.78-.93,1.26.61,1.33,1.92,1.33,1.92.96-.09,1.47.78,1.47.78h0c1.54.08,1.59,1.56,1.59,1.56-.02.26-.09.49-.18.68-.24.51-.62.77-.62.77.87,1.9-.84,2.56-.84,2.56,1.74.54,1.06,2.36,1.06,2.36.76.4.67.85.67.85,0,0,1.03-.85,2.46-.87.43,0,.9.06,1.39.25,1.53.59,2.09,2.17,2.28,2.99.07.3.09.5.09.5,0,0,.98-1.03,1.92-.67.33.13.54.35.67.59h0Z" style="fill:#fff; stroke-width:0px;"/><path d="M14.71,24.03c-.56.25-1.13.44-1.71.57-2.14.5-4.42.27-6.44-.7-.97-.47-1.89-1.1-2.69-1.91-1.18-1.18-1.99-2.58-2.44-4.07-.05-.17-.1-.33-.14-.5-.06-.24-.11-.47-.15-.71-.16-.94-.18-1.9-.06-2.84.01-.11.03-.22.05-.34.21-1.31.68-2.58,1.42-3.73.14.27.26.59.35.95,1.94.12,1.28,1.66,1.28,1.66h0s.92-.5,1.5.57c.55,1.71-.69,2.54-.69,2.54,1.19,1.57-.28,2.35-.28,2.35,1.83,1.2.5,2.72.5,2.72.78.41.69.88.69.88,0,0,1.79-1.48,3.94-.65s2.43,3.6,2.43,3.6c0,0,1.01-1.06,1.97-.69.19.07.34.18.46.3h0Z" style="fill:#fff; stroke-width:0px;"/><path d="M6.31,22.4s-.11.02-.07.07.11-.02.07-.07h0Z" style="fill:url(#d); stroke-width:0px;"/><path d="M8.62,22.04s-.11.02-.07.07c.04.04.11-.02.07-.07h0Z" style="fill:url(#e); stroke-width:0px;"/><path d="M9.87,21.17s-.11.02-.07.07.11-.02.07-.07h0Z" style="fill:url(#f); stroke-width:0px;"/><path d="M12.78,22.28s-.11.02-.07.07.11-.02.07-.07h0Z" style="fill:url(#g); stroke-width:0px;"/><path d="M12.91,21.59s-.11.02-.07.07.11-.02.07-.07h0Z" style="fill:url(#h); stroke-width:0px;"/><path d="M9.61,18.01s-.11.02-.07.07c.04.04.11-.02.07-.07h0Z" style="fill:url(#i); stroke-width:0px;"/><path d="M10.54,17.2s-.11.02-.07.07.11-.02.07-.07h0Z" style="fill:url(#j); stroke-width:0px;"/><path d="M8.65,16.34s-.11.02-.07.07.11-.02.07-.07h0Z" style="fill:url(#k); stroke-width:0px;"/><path d="M9.05,15.83s-.11.02-.07.07.11-.02.07-.07h0Z" style="fill:url(#l); stroke-width:0px;"/><path d="M8.07,13.44s-.11.02-.07.07.11-.02.07-.07h0Z" style="fill:url(#m); stroke-width:0px;"/><path d="M2.07,18.46s-.11.02-.07.07.11-.02.07-.07h0Z" style="fill:url(#n); stroke-width:0px;"/><path d="M5.42,13.85s-.11.02-.07.07.11-.02.07-.07h0Z" style="fill:url(#o); stroke-width:0px;"/><g style="opacity:.5;"><path d="M8.15,15.98c-.09-.09-.22.05-.14.14s.22-.05.14-.14h0Z" style="fill:url(#p); stroke-width:0px;"/><path d="M9.32,16.2c-.09-.09-.22.05-.14.14s.22-.05.14-.14h0Z" style="fill:url(#q); stroke-width:0px;"/><path d="M4.02,15.54c-.09-.09-.22.05-.14.14s.22-.05.14-.14h0Z" style="fill:url(#r); stroke-width:0px;"/><path d="M5.64,14.14c-.09-.09-.22.05-.14.14s.22-.05.14-.14h0Z" style="fill:url(#s); stroke-width:0px;"/><path d="M7.71,13.44c-.09-.09-.22.05-.14.14s.22-.05.14-.14h0Z" style="fill:url(#t); stroke-width:0px;"/><path d="M7.82,12.57c-.09-.09-.22.05-.14.14s.22-.05.14-.14h0Z" style="fill:url(#u); stroke-width:0px;"/><path d="M9.8,21.53c-.09-.09-.22.05-.14.14s.22-.05.14-.14h0Z" style="fill:url(#v); stroke-width:0px;"/><path d="M9.56,18.79c-.09-.09-.22.05-.14.14s.22-.05.14-.14h0Z" style="fill:url(#w); stroke-width:0px;"/><path d="M10.2,18.31c-.09-.09-.22.05-.14.14s.22-.05.14-.14h0Z" style="fill:url(#x); stroke-width:0px;"/><path d="M8.61,22.41c-.09-.09-.22.05-.14.14s.22-.05.14-.14h0Z" style="fill:url(#y); stroke-width:0px;"/></g><path d="M2.04,12.04s-.11.02-.07.07c.04.04.11-.02.07-.07h0Z" style="fill:url(#z); stroke-width:0px;"/><path d="M3.29,11.17s-.11.02-.07.07.11-.02.07-.07h0Z" style="fill:url(#aa); stroke-width:0px;"/><path d="M6.2,12.27s-.11.02-.07.07.11-.02.07-.07h0Z" style="fill:url(#ab); stroke-width:0px;"/><path d="M6.33,11.58s-.11.02-.07.07c.04.04.11-.02.07-.07h0Z" style="fill:url(#ac); stroke-width:0px;"/><path d="M4.82,21.27s-.11.02-.07.07c.04.04.11-.02.07-.07h0Z" style="fill:url(#ad); stroke-width:0px;"/><path d="M5.53,20.84s-.11.02-.07.07c.04.04.11-.02.07-.07h0Z" style="fill:url(#ae); stroke-width:0px;"/><path d="M4.64,20.55s-.11.02-.07.07c.04.04.11-.02.07-.07h0Z" style="fill:url(#af); stroke-width:0px;"/><path d="M6.62,19.04s-.11.02-.07.07.11-.02.07-.07h0Z" style="fill:url(#ag); stroke-width:0px;"/><path d="M7.05,15.66s-.11.02-.07.07.11-.02.07-.07h0Z" style="fill:url(#ah); stroke-width:0px;"/><path d="M6.37,15.14s-.11.02-.07.07c.04.04.11-.02.07-.07h0Z" style="fill:url(#ai); stroke-width:0px;"/><path d="M6.98,14.8s-.11.02-.07.07.11-.02.07-.07h0Z" style="fill:url(#aj); stroke-width:0px;"/><g style="opacity:.5;"><path d="M3.22,11.53c-.09-.09-.22.05-.14.14s.22-.05.14-.14h0Z" style="fill:url(#ak); stroke-width:0px;"/><path d="M6.65,18.35c-.09-.09-.22.05-.14.14s.22-.05.14-.14h0Z" style="fill:url(#al); stroke-width:0px;"/><path d="M4.38,20.91c-.09-.09-.22.05-.14.14s.22-.05.14-.14h0Z" style="fill:url(#am); stroke-width:0px;"/><path d="M6.41,14.69c-.09-.09-.22.05-.14.14s.22-.05.14-.14h0Z" style="fill:url(#an); stroke-width:0px;"/><path d="M2.03,12.4c-.09-.09-.22.05-.14.14s.22-.05.14-.14h0Z" style="fill:url(#ao); stroke-width:0px;"/></g><path d="M3.81,10.15s-.02-.11-.06-.07c-.05.04.02.11.06.07h0Z" style="fill:url(#ap); stroke-width:0px;"/><path d="M4.58,11.47s-.02-.11-.06-.07c-.05.04.02.11.06.07h0Z" style="fill:url(#aq); stroke-width:0px;"/><path d="M3.25,14.28s-.02-.11-.06-.07.02.11.06.07h0Z" style="fill:url(#ar); stroke-width:0px;"/><path d="M3.93,14.47s-.02-.11-.06-.07.02.11.06.07h0Z" style="fill:url(#as); stroke-width:0px;"/><path d="M7.76,11.47s-.02-.11-.06-.07c-.05.04.02.11.06.07h0Z" style="fill:url(#at); stroke-width:0px;"/><path d="M8.49,12.45s-.02-.11-.06-.07c-.05.04.02.11.06.07h0Z" style="fill:url(#au); stroke-width:0px;"/><path d="M9.49,10.64s-.02-.11-.06-.07c-.05.04.02.11.06.07h0Z" style="fill:url(#av); stroke-width:0px;"/><path d="M9.97,11.07s-.02-.11-.06-.07c-.05.04.02.11.06.07h0Z" style="fill:url(#aw); stroke-width:0px;"/><path d="M12.43,10.28s-.02-.11-.06-.07c-.05.04.02.11.06.07h0Z" style="fill:url(#ax); stroke-width:0px;"/><path d="M12.23,7.61s-.02-.11-.06-.07c-.05.04.02.11.06.07h0Z" style="fill:url(#ay); stroke-width:0px;"/><g style="opacity:.5;"><path d="M9.89,10.16c.09-.08-.03-.23-.13-.15s.03.23.13.15h0Z" style="fill:url(#az); stroke-width:0px;"/><path d="M9.58,11.32c.09-.08-.03-.23-.13-.15s.03.23.13.15h0Z" style="fill:url(#ba); stroke-width:0px;"/><path d="M12.46,9.92c.09-.08-.03-.23-.13-.15s.03.23.13.15h0Z" style="fill:url(#bb); stroke-width:0px;"/><path d="M13.32,10.1c.09-.08-.03-.23-.13-.15s.03.23.13.15h0Z" style="fill:url(#bc); stroke-width:0px;"/><path d="M4.23,11.37c.09-.08-.03-.23-.13-.15s.03.23.13.15h0Z" style="fill:url(#bd); stroke-width:0px;"/><path d="M6.98,11.35c.09-.08-.03-.23-.13-.15s.03.23.13.15h0Z" style="fill:url(#be); stroke-width:0px;"/><path d="M7.41,12.02c.09-.08-.03-.23-.13-.15s.03.23.13.15h0Z" style="fill:url(#bf); stroke-width:0px;"/><path d="M3.45,10.12c.09-.08-.03-.23-.13-.15s.03.23.13.15h0Z" style="fill:url(#bg); stroke-width:0px;"/></g><path d="M15.39,20.49s.11-.02.07-.07-.11.02-.07.07h0Z" style="fill:url(#bh); stroke-width:0px;"/><path d="M15.62,14.96s.11-.02.07-.07-.11.02-.07.07h0Z" style="fill:url(#bi); stroke-width:0px;"/><path d="M16.55,15.91s.11-.02.07-.07-.11.02-.07.07h0Z" style="fill:url(#bj); stroke-width:0px;"/><path d="M13.07,20.74s.11-.02.07-.07-.11.02-.07.07h0Z" style="fill:url(#bk); stroke-width:0px;"/><path d="M11.78,21.55s.11-.02.07-.07-.11.02-.07.07h0Z" style="fill:url(#bl); stroke-width:0px;"/><path d="M8.93,20.32s.11-.02.07-.07-.11.02-.07.07h0Z" style="fill:url(#bm); stroke-width:0px;"/><path d="M8.76,21.01s.11-.02.07-.07-.11.02-.07.07h0Z" style="fill:url(#bn); stroke-width:0px;"/><path d="M11.9,24.73s.11-.02.07-.07c-.04-.05-.11.02-.07.07h0Z" style="fill:url(#bo); stroke-width:0px;"/><path d="M19.29,15.14s.11-.02.07-.07-.11.02-.07.07h0Z" style="fill:url(#bp); stroke-width:0px;"/><path d="M18.64,15.62s.11-.02.07-.07-.11.02-.07.07h0Z" style="fill:url(#bq); stroke-width:0px;"/><path d="M10.7,11.39s.11-.02.07-.07c-.04-.05-.11.02-.07.07h0Z" style="fill:url(#br); stroke-width:0px;"/><path d="M9.98,11.79s.11-.02.07-.07c-.04-.05-.11.02-.07.07h0Z" style="fill:url(#bs); stroke-width:0px;"/><path d="M10.84,12.12s.11-.02.07-.07c-.04-.05-.11.02-.07.07h0Z" style="fill:url(#bt); stroke-width:0px;"/><path d="M8.8,13.54s.11-.02.07-.07-.11.02-.07.07h0Z" style="fill:url(#bu); stroke-width:0px;"/><path d="M8.22,16.89s.11-.02.07-.07-.11.02-.07.07h0Z" style="fill:url(#bv); stroke-width:0px;"/><path d="M8.88,17.45s.11-.02.07-.07-.11.02-.07.07h0Z" style="fill:url(#bw); stroke-width:0px;"/><path d="M8.26,17.76s.11-.02.07-.07-.11.02-.07.07h0Z" style="fill:url(#bx); stroke-width:0px;"/><path d="M15.88,14.13s.11-.02.07-.07-.11.02-.07.07h0Z" style="fill:url(#by); stroke-width:0px;"/><g style="opacity:.5;"><path d="M18,20.16c.08.09.23-.04.14-.13s-.23.04-.14.13h0Z" style="fill:url(#bz); stroke-width:0px;"/><path d="M11.87,21.2c.08.09.23-.04.14-.13s-.23.04-.14.13h0Z" style="fill:url(#ca); stroke-width:0px;"/><path d="M11.98,23.95c.08.09.23-.04.14-.13s-.23.04-.14.13h0Z" style="fill:url(#cb); stroke-width:0px;"/><path d="M11.33,24.4c.08.09.23-.04.14-.13s-.23.04-.14.13h0Z" style="fill:url(#cc); stroke-width:0px;"/><path d="M8.74,14.23c.08.09.23-.04.14-.13s-.23.04-.14.13h0Z" style="fill:url(#cd); stroke-width:0px;"/><path d="M11.12,11.77c.08.09.23-.04.14-.13s-.23.04-.14.13h0Z" style="fill:url(#ce); stroke-width:0px;"/><path d="M15.6,14.4c.08.09.23-.04.14-.13s-.23.04-.14.13h0Z" style="fill:url(#cf); stroke-width:0px;"/><path d="M18.51,15.09c.08.09.23-.04.14-.13s-.23.04-.14.13h0Z" style="fill:url(#cg); stroke-width:0px;"/><path d="M8.82,17.9c.08.09.23-.04.14-.13s-.23.04-.14.13h0Z" style="fill:url(#ch); stroke-width:0px;"/><path d="M19.27,17.55c.08.09.23-.04.14-.13s-.23.04-.14.13h0Z" style="fill:url(#ci); stroke-width:0px;"/><path d="M16.86,19.3c.08.09.23-.04.14-.13s-.23.04-.14.13h0Z" style="fill:url(#cj); stroke-width:0px;"/><path d="M13.1,20.38c.08.09.23-.04.14-.13s-.23.04-.14.13h0Z" style="fill:url(#ck); stroke-width:0px;"/></g><path d="M7.01,14.87c0,.06.1.06.1,0s-.1-.06-.1,0h0Z" style="fill:url(#cl); stroke-width:0px;"/><path d="M5.51,14.6c0,.06.1.06.1,0s-.1-.06-.1,0h0Z" style="fill:url(#cm); stroke-width:0px;"/><path d="M4.23,11.76c0,.06.1.06.1,0s-.1-.06-.1,0h0Z" style="fill:url(#cn); stroke-width:0px;"/><path d="M3.65,12.16c0,.06.1.06.1,0s-.1-.06-.1,0h0Z" style="fill:url(#co); stroke-width:0px;"/><path d="M11.57,6.38c0,.06.1.06.1,0s-.1-.06-.1,0h0Z" style="fill:url(#cp); stroke-width:0px;"/><path d="M10.77,6.18c0,.06.1.06.1,0s-.1-.06-.1,0h0Z" style="fill:url(#cq); stroke-width:0px;"/><path d="M11.18,7.01c0,.06.1.06.1,0s-.1-.06-.1,0h0Z" style="fill:url(#cr); stroke-width:0px;"/><path d="M8.72,6.68c0,.06.1.06.1,0s-.1-.06-.1,0h0Z" style="fill:url(#cs); stroke-width:0px;"/><path d="M6.03,8.76c0,.06.1.06.1,0s-.1-.06-.1,0h0Z" style="fill:url(#ct); stroke-width:0px;"/><path d="M6.14,9.62c0,.06.1.06.1,0s-.1-.06-.1,0h0Z" style="fill:url(#cu); stroke-width:0px;"/><path d="M5.47,9.43c0,.06.1.06.1,0s-.1-.06-.1,0h0Z" style="fill:url(#cv); stroke-width:0px;"/><g style="opacity:.5;"><path d="M5.81,14.4c0,.12.19.12.19,0s-.19-.12-.19,0h0Z" style="fill:url(#cw); stroke-width:0px;"/><path d="M8.21,7.15c0,.12.19.12.19,0s-.19-.12-.19,0h0Z" style="fill:url(#cx); stroke-width:0px;"/><path d="M11.62,6.94c0,.12.19.12.19,0s-.19-.12-.19,0h0Z" style="fill:url(#cy); stroke-width:0px;"/><path d="M5.79,9.91c0,.12.19.12.19,0s-.19-.12-.19,0h0Z" style="fill:url(#cz); stroke-width:0px;"/><path d="M7.27,14.62c0,.12.19.12.19,0s-.19-.12-.19,0h0Z" style="fill:url(#da); stroke-width:0px;"/></g><path d="M13.72,17.2h0s-.02.05-.03.07c0-.02.02-.05.03-.07h0Z" style="fill:#d71f26; stroke-width:0px;"/><path d="M15.85,17.63c-.33.21-.68.39-1.02.53-.53-.26-.93-.68-1.11-.96.15-.37.34-.77.58-1.14.01-.02.06-.09.09-.13,0,0,0,0,0,0,.13-.23-.19-.5-.34-.4,0,0,0,0-.01,0,.45-.35.91-.75,1.36-1.18-.12.14-.25.34-.15.48.03.04.06.07.09.09.5-.32,1.03-.35,1.53.15.88.88.08,1.84-1.02,2.55h0Z" style="fill:#d71f26; stroke-width:0px;"/><path d="M9.87,17.96c.06.39-.05.79-.3,1.11-.98,1.24-3.68,1.78-3.68,1.78,0,0-.08-2.75.9-3.99.25-.31.61-.5,1.01-.54l2.07,1.64h0Z" style="fill:#e9e991; stroke-width:0px;"/><path d="M9.44,17.61c.03.23-.03.46-.17.65-.57.72-2.15,1.04-2.15,1.04,0,0-.05-1.6.52-2.33.15-.18.36-.29.59-.32l1.21.96h0Z" style="fill:#fff; isolation:isolate; opacity:.85; stroke-width:0px;"/><path d="M10.97,17.6c-.11.06-.17.09-.18.1l-2.83-2.25s.02-.08.05-.2c.14-.49.55-1.86,1.31-3.46h0c.24-.52.52-1.05.84-1.6h0c.59-1.01,1.31-2.03,2.18-2.92,1.3-1.34,2.56-2.05,3.62-2.4.16.64.6,1.31,1.25,1.82.65.52,1.39.79,2.06.8-.1,1.11-.51,2.5-1.51,4.07-2.16,3.38-5.92,5.56-6.78,6.03h0Z" style="fill:#d71f26; stroke-width:0px;"/><path d="M19.27,7.5c-.67-.02-1.41-.29-2.06-.8-.65-.52-1.08-1.18-1.25-1.82.19-.07.38-.12.56-.16.11.53.47,1.11,1.03,1.55.56.44,1.2.67,1.74.65,0,.19,0,.38-.03.58h0Z" style="fill:#5e69af; stroke-width:0px;"/><path d="M19.3,6.92c-.54.02-1.18-.2-1.74-.65-.56-.44-.92-1.02-1.03-1.55,1.22-.29,2.06-.1,2.23.03.17.13.54.92.54,2.17h0Z" style="fill:#2a2765; stroke-width:0px;"/><path d="M10.8,10.75s-1.54,1.27-1.48,1.05h0c.24-.52.52-1.05.84-1.6h0c.08-.11.13-.21.13-.21l.51.76h0Z" style="fill:#d71f26; stroke-width:0px;"/><path d="M9.32,11.78c.07-.16-.27-.42-.46-.24,0,0,0,0,0,0-.03.03-.09.1-.11.12-.27.29-.59.54-.89.76-.57-.16-.99-.54-1.26-.86.06-.35.15-.71.27-1.06.45-1.24,1.19-2.23,2.25-1.57.6.37.69.89.49,1.45.02.03.06.05.11.07.16.06.33-.1.43-.25-.32.54-.6,1.08-.84,1.6,0,0,0,0,0-.01h0Z" style="fill:#c42126; stroke-width:0px;"/><path d="M18.74,4.73c-.29.03-1.48-.04-2.46.38-.16.07-.34.15-.51.24-2.24,1.12-4.95,3.99-7.1,10.42l-.65-.52c.14-.49.55-1.86,1.31-3.46h0c.24-.52.52-1.05.84-1.6,0,0,0,0,0,0,.59-1.01,1.31-2.03,2.18-2.92,1.3-1.34,2.56-2.05,3.62-2.4.19-.07.38-.12.56-.16,1.17-.28,2-.11,2.21.02h0Z" style="fill:#ecf0c9; isolation:isolate; opacity:.62; stroke-width:0px;"/><path d="M7.86,12.43c-.67.48-1.3.76-1.34.74-.05-.03-.07-.75.08-1.6.27.32.7.7,1.26.86Z" style="fill:#b6c1e2; stroke-width:0px;"/><path d="M14.83,18.16s-.03.01-.04.02c-.02,0-.03.01-.05.02-.13.05-.25.1-.37.14-.03.01-.06.02-.09.03-.12.04-.22.07-.32.1-.01,0-.02,0-.04.01-.01,0-.02,0-.04,0s-.02,0-.04,0c-.1.03-.2.05-.27.06,0,0-.02,0-.02,0-.04,0-.07.01-.1.02,0,0-.01,0-.02,0-.05,0-.08,0-.09,0-.01-.01,0-.1.02-.25,0-.03.01-.06.02-.1,0-.03.01-.06.02-.09,0-.02.01-.04.02-.07,0,0,0,0,0,0,.01-.04.02-.09.04-.14,0-.03.02-.05.02-.08.01-.04.02-.08.04-.12,0,0,0,0,0,0,0-.02.01-.04.02-.05.01-.03.02-.07.03-.1,0-.02.01-.04.02-.06,0-.02.01-.04.02-.06.02-.05.04-.11.06-.16,0-.02.02-.05.03-.07.18.28.58.7,1.11.96h0Z" style="fill:#b6c1e2; stroke-width:0px;"/><path d="M17.76,11.57c1.01-1.57,1.41-2.96,1.51-4.07-.67-.02-1.41-.29-2.06-.8-.65-.52-1.08-1.18-1.25-1.82-1.06.35-2.32,1.06-3.62,2.4-.87.89-1.59,1.91-2.18,2.92,0,0,0,0,0,0-.32.54-.6,1.08-.84,1.6h0c-.76,1.6-1.17,2.97-1.31,3.46-.03.12-.05.19-.05.2l2.83,2.25s.07-.04.18-.1c.45-.25,1.7-.97,3.1-2.08.15-.06.44.19.32.41h0s-.08.11-.09.13c-.7,1.07-1,2.46-.95,2.52.05.05,1.43-.25,2.51-.95,1.1-.71,1.9-1.67,1.02-2.55-.5-.5-1.03-.47-1.53-.15-.03-.02-.06-.04-.09-.09-.09-.13,0-.31.12-.45.86-.81,1.7-1.76,2.38-2.82h0Z" style="fill:url(#db); isolation:isolate; opacity:.61; stroke-width:0px;"/><circle cx="15.42" cy="8.96" r="1.71" style="fill:#b6c1e2; stroke-width:0px;"/><circle cx="15.42" cy="8.96" r="1.44" style="fill:#5e69af; stroke-width:0px;"/><path d="M17.63,9.73c.05-.17-.21-.37-.46-.52.06-.43-.05-.87-.3-1.23-.3-.43-.77-.69-1.29-.73-.05,0-.1,0-.15,0-.26,0-.52.07-.75.19-.31-.28-.55-.38-.67-.3-.12.09-.1.37.08.79-.03.04-.07.09-.1.14-.03.04-.05.09-.08.14-.42-.02-.68.04-.72.18-.04.14.15.34.53.57,0,.05,0,.1,0,.15.02.32.13.62.31.88.2.29.47.5.8.62.04.02.08.03.13.04.22.06.44.09.67.06.12-.01.23-.04.35-.07h0c.14.13.31.26.46.31.09.03.16.04.22,0,.14-.1.06-.42-.03-.68.12-.11.22-.23.3-.36.3.02.66,0,.71-.18h0ZM17.1,9.52c.02-.06.04-.13.05-.2.23.14.35.27.32.35-.03.08-.2.12-.49.11.05-.09.08-.18.12-.27h0ZM16.52,10.34c.09.25.1.42.03.47-.07.05-.24-.03-.46-.22.13-.05.25-.11.36-.19.03-.02.05-.04.07-.06h0ZM14.16,7.82c-.12-.3-.14-.5-.06-.56.08-.05.24.03.47.22-.04.02-.07.05-.11.07-.11.08-.21.17-.29.26h0ZM14.06,8.11s.04-.06.06-.08c.17.38.43.84.74,1.29-.4-.14-.76-.3-1.04-.45.02-.27.1-.53.24-.76h0ZM13.34,8.43c.03-.09.21-.13.51-.12-.07.16-.11.33-.13.51-.27-.16-.41-.3-.38-.39h0ZM16.39,10.31c-.12.08-.25.15-.38.2-.25-.23-.54-.57-.84-.96.03,0,.05.02.08.02.57.17,1.12.29,1.56.32-.11.16-.25.3-.41.42h0ZM15.42,7.34s.09,0,.14,0c.16.01.32.05.47.1.3.11.56.32.75.58.25.35.35.78.28,1.2-.01.09-.03.17-.06.26-.03.1-.08.2-.13.3-.42-.03-.99-.15-1.59-.33-.08-.02-.16-.05-.23-.07-.02-.03-.05-.07-.07-.1-.33-.48-.61-.97-.78-1.35.09-.11.19-.2.31-.29.27-.19.59-.29.91-.3h0ZM15.61,10.6c-.21.02-.43,0-.63-.06-.35-.11-.65-.32-.87-.62-.17-.25-.27-.53-.29-.83,0-.03,0-.06,0-.09.22.12.5.24.79.36.12.04.24.09.36.13.3.42.62.8.91,1.07-.09.02-.18.04-.27.05h0Z" style="fill:#b6c1e2; stroke-width:0px;"/><path d="M16.44,7.55c-.12,0-.27.03-.45.07-.62.15-1.47.6-1.9,1.9-.04.12-.08.25-.11.39-.23-.36-.32-.8-.24-1.25.18-.94,1.09-1.56,2.03-1.38.25.05.47.14.67.28h0Z" style="fill:#ecf0c9; isolation:isolate; opacity:.62; stroke-width:0px;"/><polygon points="7.85 15.13 11.02 17.64 10.19 18.27 7.42 16.08 7.85 15.13" style="fill:#1a1848; stroke-width:0px;"/><path d="M9.27,16.26s-.21.42-.42.96l-1.43-1.14.43-.95,1.42,1.13h0Z" style="fill:#ecf0c9; stroke-width:0px;"/><path d="M9.86,18.03c.06.39-.04.7-.29,1.02-.98,1.24-3.68,1.78-3.68,1.78,0,0-.08-2.75.9-3.99.28-.3.55-.48.94-.51l2.13,1.7h0Z" style="fill:url(#dc); isolation:isolate; opacity:.62; stroke-width:0px;"/><path d="M45.3,10.72c.88.67,1.47,1.57,1.75,2.72h-2.26c-.23-.56-.6-1-1.09-1.32-.49-.32-1.09-.48-1.78-.48-.57,0-1.08.14-1.54.41s-.81.67-1.07,1.18c-.25.51-.38,1.11-.38,1.79s.13,1.27.38,1.78.61.9,1.07,1.18c.46.27.97.41,1.54.41.69,0,1.28-.16,1.78-.48.49-.32.86-.76,1.09-1.32h2.26c-.28,1.15-.87,2.05-1.75,2.72s-2,1-3.34,1c-1.03,0-1.94-.22-2.72-.67-.79-.45-1.4-1.07-1.83-1.87s-.65-1.71-.65-2.73.22-1.94.65-2.75,1.04-1.43,1.82-1.87c.78-.45,1.69-.67,2.73-.67,1.34,0,2.46.33,3.34,1h0Z" style="fill:#fff; stroke-width:0px;"/><path d="M51.28,16.35v3.85h-2.15v-10.38h3.92c1.27,0,2.23.29,2.88.88s.97,1.39.97,2.4-.33,1.78-1,2.37-1.62.88-2.85.88h-1.77ZM54.71,13.11c0-.52-.15-.92-.44-1.19s-.78-.41-1.45-.41h-1.54v3.19h1.54c1.26,0,1.89-.53,1.89-1.59h0Z" style="fill:#fff; stroke-width:0px;"/><path d="M62.68,14.11v1.72h-3.92v-1.72h3.92Z" style="fill:#fff; stroke-width:0px;"/><path d="M72.53,12.87c.58.62.87,1.49.87,2.6v4.73h-2.14v-4.5c0-.65-.17-1.15-.52-1.51s-.82-.54-1.42-.54-1.1.19-1.46.57c-.37.38-.55.93-.55,1.65v4.32h-2.15v-8.14h2.15v1.63c.22-.55.59-.98,1.11-1.29.51-.31,1.11-.46,1.78-.46.98,0,1.75.31,2.33.93h0Z" style="fill:#fff; stroke-width:0px;"/><path d="M80.89,12.44c.51.32.87.76,1.08,1.31v-1.69h2.14v8.17c0,.75-.16,1.43-.47,2.04s-.77,1.07-1.39,1.42c-.62.34-1.36.51-2.23.51-1.22,0-2.21-.28-2.96-.84s-1.21-1.32-1.37-2.28h2.12c.12.41.36.73.71.96.35.23.8.35,1.35.35.63,0,1.14-.18,1.53-.54.39-.36.58-.9.58-1.63v-1.73c-.21.55-.57.99-1.08,1.31-.51.33-1.12.49-1.83.49s-1.35-.17-1.92-.5c-.57-.33-1.02-.82-1.34-1.45-.32-.63-.48-1.38-.48-2.23s.16-1.59.48-2.23c.32-.63.76-1.11,1.34-1.45.57-.33,1.21-.5,1.92-.5s1.32.16,1.83.48h0ZM78.11,14.4c-.41.42-.61,1-.61,1.73s.2,1.31.61,1.73c.41.42.95.62,1.62.62s1.19-.21,1.61-.64c.42-.43.63-1,.63-1.71s-.21-1.3-.63-1.73c-.42-.43-.96-.64-1.61-.64s-1.21.21-1.62.63h0Z" style="fill:#fff; stroke-width:0px;"/><polygon points="36.18 20.25 33.57 20.25 31.08 16.62 28.88 20.25 26.36 20.25 29.22 15.76 33.1 15.76 36.18 20.25" style="fill:#fff; stroke-width:0px;"/><polygon points="36.01 9.61 33.2 14.01 29.21 14.01 26.19 9.61 28.8 9.61 31.29 13.25 33.49 9.61 36.01 9.61" style="fill:#fff; stroke-width:0px;"/></svg>