<?xml version="1.0" encoding="UTF-8"?><svg id="a" xmlns="http://www.w3.org/2000/svg" xmlns:xlink="http://www.w3.org/1999/xlink" viewBox="0 0 80.7 80.7"><defs><radialGradient id="b" cx="-5237.38" cy="416.43" fx="-5237.38" fy="416.43" r="85.13" gradientTransform="translate(1870.31 189.48) scale(.35 -.35)" gradientUnits="userSpaceOnUse"><stop offset="0" stop-color="#fff"/><stop offset=".11" stop-color="#fff" stop-opacity=".98"/><stop offset=".23" stop-color="#fff" stop-opacity=".93"/><stop offset=".36" stop-color="#fff" stop-opacity=".84"/><stop offset=".5" stop-color="#fff" stop-opacity=".72"/><stop offset=".64" stop-color="#fff" stop-opacity=".56"/><stop offset=".78" stop-color="#fff" stop-opacity=".36"/><stop offset=".92" stop-color="#fff" stop-opacity=".14"/><stop offset="1" stop-color="#fff" stop-opacity="0"/></radialGradient><radialGradient id="c" cx="10657.24" cy="-4584.79" fx="10657.24" fy="-4584.79" r=".18" gradientTransform="translate(4317.31 10845.8) rotate(-135) scale(1 -1)" gradientUnits="userSpaceOnUse"><stop offset="0" stop-color="#fff"/><stop offset="1" stop-color="#fff" stop-opacity="0"/></radialGradient><radialGradient id="d" cx="32.13" cy="15.28" fx="32.13" fy="15.28" r=".18" gradientTransform="translate(0 82) scale(1 -1)" xlink:href="#c"/><radialGradient id="e" cx="36.86" cy="18.57" fx="36.86" fy="18.57" r=".18" gradientTransform="translate(0 82) scale(1 -1)" xlink:href="#c"/><radialGradient id="f" cx="47.82" cy="14.39" fx="47.82" fy="14.39" r=".18" gradientTransform="translate(0 82) scale(1 -1)" xlink:href="#c"/><radialGradient id="g" cx="48.32" cy="17.01" fx="48.32" fy="17.01" r=".18" gradientTransform="translate(0 82) scale(1 -1)" xlink:href="#c"/><radialGradient id="h" cx="35.89" cy="30.51" fx="35.89" fy="30.51" r=".18" gradientTransform="translate(0 82) scale(1 -1)" xlink:href="#c"/><radialGradient id="i" cx="39.37" cy="33.54" fx="39.37" fy="33.54" r=".18" gradientTransform="translate(0 82) scale(1 -1)" xlink:href="#c"/><radialGradient id="j" cx="32.27" cy="36.8" fx="32.27" fy="36.8" r=".18" gradientTransform="translate(0 82) scale(1 -1)" xlink:href="#c"/><radialGradient id="k" cx="33.75" cy="38.72" fx="33.75" fy="38.72" r=".18" gradientTransform="translate(0 82) scale(1 -1)" xlink:href="#c"/><radialGradient id="l" cx="30.05" cy="47.74" fx="30.05" fy="47.74" r=".18" gradientTransform="translate(0 82) scale(1 -1)" xlink:href="#c"/><radialGradient id="m" cx="7.42" cy="28.81" fx="7.42" fy="28.81" r=".18" gradientTransform="translate(0 82) scale(1 -1)" xlink:href="#c"/><radialGradient id="n" cx="20.06" cy="46.19" fx="20.06" fy="46.19" r=".18" gradientTransform="translate(0 82) scale(1 -1)" xlink:href="#c"/><radialGradient id="o" cx="30.24" cy="38.03" fx="30.24" fy="38.03" r=".36" gradientTransform="translate(0 82) scale(1 -1)" xlink:href="#c"/><radialGradient id="p" cx="34.67" cy="37.19" fx="34.67" fy="37.19" r=".36" gradientTransform="translate(0 82) scale(1 -1)" xlink:href="#c"/><radialGradient id="q" cx="14.67" cy="39.7" fx="14.67" fy="39.7" r=".36" gradientTransform="translate(0 82) scale(1 -1)" xlink:href="#c"/><radialGradient id="r" cx="20.78" cy="44.97" fx="20.78" fy="44.97" r=".36" gradientTransform="translate(0 82) scale(1 -1)" xlink:href="#c"/><radialGradient id="s" cx="28.56" cy="47.61" fx="28.56" fy="47.61" r=".36" gradientTransform="translate(0 82) scale(1 -1)" xlink:href="#c"/><radialGradient id="t" cx="28.98" cy="50.9" fx="28.98" fy="50.9" r=".36" gradientTransform="translate(0 82) scale(1 -1)" xlink:href="#c"/><radialGradient id="u" cx="36.46" cy="17.07" fx="36.46" fy="17.07" r=".36" gradientTransform="translate(0 82) scale(1 -1)" xlink:href="#c"/><radialGradient id="v" cx="35.57" cy="27.43" fx="35.57" fy="27.43" r=".36" gradientTransform="translate(0 82) scale(1 -1)" xlink:href="#c"/><radialGradient id="w" cx="37.96" cy="29.23" fx="37.96" fy="29.23" r=".36" gradientTransform="translate(0 82) scale(1 -1)" xlink:href="#c"/><radialGradient id="x" cx="31.97" cy="13.78" fx="31.97" fy="13.78" r=".36" gradientTransform="translate(0 82) scale(1 -1)" xlink:href="#c"/><radialGradient id="y" cx="7.31" cy="53.03" fx="7.31" fy="53.03" r=".18" gradientTransform="translate(0 82) scale(1 -1)" xlink:href="#c"/><radialGradient id="z" cx="12.04" cy="56.31" fx="12.04" fy="56.31" r=".18" gradientTransform="translate(0 82) scale(1 -1)" xlink:href="#c"/><radialGradient id="aa" cx="23.01" cy="52.14" fx="23.01" fy="52.14" r=".18" gradientTransform="translate(0 82) scale(1 -1)" xlink:href="#c"/><radialGradient id="ab" cx="23.51" cy="54.75" fx="23.51" fy="54.75" r=".18" gradientTransform="translate(0 82) scale(1 -1)" xlink:href="#c"/><radialGradient id="ac" cx="17.8" cy="18.19" fx="17.8" fy="18.19" r=".18" gradientTransform="translate(0 82) scale(1 -1)" xlink:href="#c"/><radialGradient id="ad" cx="20.47" cy="19.82" fx="20.47" fy="19.82" r=".18" gradientTransform="translate(0 82) scale(1 -1)" xlink:href="#c"/><radialGradient id="ae" cx="17.14" cy="20.93" fx="17.14" fy="20.93" r=".18" gradientTransform="translate(0 82) scale(1 -1)" xlink:href="#c"/><radialGradient id="af" cx="24.61" cy="26.62" fx="24.61" fy="26.62" r=".18" gradientTransform="translate(0 82) scale(1 -1)" xlink:href="#c"/><radialGradient id="ag" cx="26.24" cy="39.34" fx="26.24" fy="39.34" r=".18" gradientTransform="translate(0 82) scale(1 -1)" xlink:href="#c"/><radialGradient id="ah" cx="23.65" cy="41.34" fx="23.65" fy="41.34" r=".18" gradientTransform="translate(0 82) scale(1 -1)" xlink:href="#c"/><radialGradient id="ai" cx="25.94" cy="42.6" fx="25.94" fy="42.6" r=".18" gradientTransform="translate(0 82) scale(1 -1)" xlink:href="#c"/><radialGradient id="aj" cx="11.65" cy="54.82" fx="11.65" fy="54.82" r=".36" gradientTransform="translate(0 82) scale(1 -1)" xlink:href="#c"/><radialGradient id="ak" cx="24.58" cy="29.08" fx="24.58" fy="29.08" r=".36" gradientTransform="translate(0 82) scale(1 -1)" xlink:href="#c"/><radialGradient id="al" cx="16.02" cy="19.44" fx="16.02" fy="19.44" r=".36" gradientTransform="translate(0 82) scale(1 -1)" xlink:href="#c"/><radialGradient id="am" cx="23.68" cy="42.91" fx="23.68" fy="42.91" r=".36" gradientTransform="translate(0 82) scale(1 -1)" xlink:href="#c"/><radialGradient id="an" cx="7.16" cy="51.53" fx="7.16" fy="51.53" r=".36" gradientTransform="translate(0 82) scale(1 -1)" xlink:href="#c"/><radialGradient id="ao" cx="14.01" cy="60.4" fx="14.01" fy="60.4" r=".18" gradientTransform="translate(0 82) scale(1 -1)" xlink:href="#c"/><radialGradient id="ap" cx="16.91" cy="55.42" fx="16.91" fy="55.42" r=".18" gradientTransform="translate(0 82) scale(1 -1)" xlink:href="#c"/><radialGradient id="aq" cx="11.89" cy="44.82" fx="11.89" fy="44.82" r=".18" gradientTransform="translate(0 82) scale(1 -1)" xlink:href="#c"/><radialGradient id="ar" cx="14.46" cy="44.11" fx="14.46" fy="44.11" r=".18" gradientTransform="translate(0 82) scale(1 -1)" xlink:href="#c"/><radialGradient id="as" cx="28.9" cy="55.45" fx="28.9" fy="55.45" r=".18" gradientTransform="translate(0 82) scale(1 -1)" xlink:href="#c"/><radialGradient id="at" cx="31.65" cy="51.75" fx="31.65" fy="51.75" r=".18" gradientTransform="translate(0 82) scale(1 -1)" xlink:href="#c"/><radialGradient id="au" cx="35.45" cy="58.57" fx="35.45" fy="58.57" r=".18" gradientTransform="translate(0 82) scale(1 -1)" xlink:href="#c"/><radialGradient id="av" cx="37.25" cy="56.95" fx="37.25" fy="56.95" r=".18" gradientTransform="translate(0 82) scale(1 -1)" xlink:href="#c"/><radialGradient id="aw" cx="46.53" cy="59.92" fx="46.53" fy="59.92" r=".18" gradientTransform="translate(0 82) scale(1 -1)" xlink:href="#c"/><radialGradient id="ax" cx="45.77" cy="70" fx="45.77" fy="70" r=".18" gradientTransform="translate(0 82) scale(1 -1)" xlink:href="#c"/><radialGradient id="ay" cx="36.83" cy="60.5" fx="36.83" fy="60.5" r=".36" gradientTransform="translate(0 82) scale(1 -1)" xlink:href="#c"/><radialGradient id="az" cx="35.65" cy="56.15" fx="35.65" fy="56.15" r=".36" gradientTransform="translate(0 82) scale(1 -1)" xlink:href="#c"/><radialGradient id="ba" cx="46.51" cy="61.42" fx="46.51" fy="61.42" r=".36" gradientTransform="translate(0 82) scale(1 -1)" xlink:href="#c"/><radialGradient id="bb" cx="49.76" cy="60.74" fx="49.76" fy="60.74" r=".36" gradientTransform="translate(0 82) scale(1 -1)" xlink:href="#c"/><radialGradient id="bc" cx="15.45" cy="55.93" fx="15.45" fy="55.93" r=".36" gradientTransform="translate(0 82) scale(1 -1)" xlink:href="#c"/><radialGradient id="bd" cx="25.85" cy="56.02" fx="25.85" fy="56.02" r=".36" gradientTransform="translate(0 82) scale(1 -1)" xlink:href="#c"/><radialGradient id="be" cx="27.45" cy="53.49" fx="27.45" fy="53.49" r=".36" gradientTransform="translate(0 82) scale(1 -1)" xlink:href="#c"/><radialGradient id="bf" cx="12.52" cy="60.66" fx="12.52" fy="60.66" r=".36" gradientTransform="translate(0 82) scale(1 -1)" xlink:href="#c"/><radialGradient id="bg" cx="57.94" cy="21.41" fx="57.94" fy="21.41" r=".18" gradientTransform="translate(0 82) scale(1 -1)" xlink:href="#c"/><radialGradient id="bh" cx="58.8" cy="42.27" fx="58.8" fy="42.27" r=".18" gradientTransform="translate(0 82) scale(1 -1)" xlink:href="#c"/><radialGradient id="bi" cx="62.32" cy="38.66" fx="62.32" fy="38.66" r=".18" gradientTransform="translate(0 82) scale(1 -1)" xlink:href="#c"/><radialGradient id="bj" cx="49.2" cy="20.46" fx="49.2" fy="20.46" r=".18" gradientTransform="translate(0 82) scale(1 -1)" xlink:href="#c"/><radialGradient id="bk" cx="44.33" cy="17.38" fx="44.33" fy="17.38" r=".18" gradientTransform="translate(0 82) scale(1 -1)" xlink:href="#c"/><radialGradient id="bl" cx="33.56" cy="22.04" fx="33.56" fy="22.04" r=".18" gradientTransform="translate(0 82) scale(1 -1)" xlink:href="#c"/><radialGradient id="bm" cx="32.94" cy="19.45" fx="32.94" fy="19.45" r=".18" gradientTransform="translate(0 82) scale(1 -1)" xlink:href="#c"/><radialGradient id="bn" cx="44.77" cy="5.41" fx="44.77" fy="5.41" r=".18" gradientTransform="translate(0 82) scale(1 -1)" xlink:href="#c"/><radialGradient id="bo" cx="72.64" cy="41.56" fx="72.64" fy="41.56" r=".18" gradientTransform="translate(0 82) scale(1 -1)" xlink:href="#c"/><radialGradient id="bp" cx="70.19" cy="39.75" fx="70.19" fy="39.75" r=".18" gradientTransform="translate(0 82) scale(1 -1)" xlink:href="#c"/><radialGradient id="bq" cx="40.25" cy="55.72" fx="40.25" fy="55.72" r=".18" gradientTransform="translate(0 82) scale(1 -1)" xlink:href="#c"/><radialGradient id="br" cx="37.52" cy="54.21" fx="37.52" fy="54.21" r=".18" gradientTransform="translate(0 82) scale(1 -1)" xlink:href="#c"/><radialGradient id="bs" cx="40.79" cy="52.96" fx="40.79" fy="52.96" r=".18" gradientTransform="translate(0 82) scale(1 -1)" xlink:href="#c"/><radialGradient id="bt" cx="33.08" cy="47.6" fx="33.08" fy="47.6" r=".18" gradientTransform="translate(0 82) scale(1 -1)" xlink:href="#c"/><radialGradient id="bu" cx="30.9" cy="34.96" fx="30.9" fy="34.96" r=".18" gradientTransform="translate(0 82) scale(1 -1)" xlink:href="#c"/><radialGradient id="bv" cx="33.4" cy="32.85" fx="33.4" fy="32.85" r=".18" gradientTransform="translate(0 82) scale(1 -1)" xlink:href="#c"/><radialGradient id="bw" cx="31.05" cy="31.7" fx="31.05" fy="31.7" r=".18" gradientTransform="translate(0 82) scale(1 -1)" xlink:href="#c"/><radialGradient id="bx" cx="59.78" cy="45.39" fx="59.78" fy="45.39" r=".18" gradientTransform="translate(0 82) scale(1 -1)" xlink:href="#c"/><radialGradient id="by" cx="67.94" cy="22.76" fx="67.94" fy="22.76" r=".36" gradientTransform="translate(0 82) scale(1 -1)" xlink:href="#c"/><radialGradient id="bz" cx="44.79" cy="18.86" fx="44.79" fy="18.86" r=".36" gradientTransform="translate(0 82) scale(1 -1)" xlink:href="#c"/><radialGradient id="ca" cx="45.23" cy="8.47" fx="45.23" fy="8.47" r=".36" gradientTransform="translate(0 82) scale(1 -1)" xlink:href="#c"/><radialGradient id="cb" cx="42.76" cy="6.78" fx="42.76" fy="6.78" r=".36" gradientTransform="translate(0 82) scale(1 -1)" xlink:href="#c"/><radialGradient id="cc" cx="33" cy="45.14" fx="33" fy="45.14" r=".36" gradientTransform="translate(0 82) scale(1 -1)" xlink:href="#c"/><radialGradient id="cd" cx="41.98" cy="54.39" fx="41.98" fy="54.39" r=".36" gradientTransform="translate(0 82) scale(1 -1)" xlink:href="#c"/><radialGradient id="ce" cx="58.86" cy="44.48" fx="58.86" fy="44.48" r=".36" gradientTransform="translate(0 82) scale(1 -1)" xlink:href="#c"/><radialGradient id="cf" cx="69.83" cy="41.9" fx="69.83" fy="41.9" r=".36" gradientTransform="translate(0 82) scale(1 -1)" xlink:href="#c"/><radialGradient id="cg" cx="33.29" cy="31.28" fx="33.29" fy="31.28" r=".36" gradientTransform="translate(0 82) scale(1 -1)" xlink:href="#c"/><radialGradient id="ch" cx="72.72" cy="32.61" fx="72.72" fy="32.61" r=".36" gradientTransform="translate(0 82) scale(1 -1)" xlink:href="#c"/><radialGradient id="ci" cx="63.62" cy="26" fx="63.62" fy="26" r=".36" gradientTransform="translate(0 82) scale(1 -1)" xlink:href="#c"/><radialGradient id="cj" cx="49.42" cy="21.95" fx="49.42" fy="21.95" r=".36" gradientTransform="translate(0 82) scale(1 -1)" xlink:href="#c"/><radialGradient id="ck" cx="146.98" cy="-8792.45" fx="146.98" fy="-8792.45" r=".18" gradientTransform="translate(8818.83 -107.44) rotate(90) scale(1 -1)" xlink:href="#c"/><radialGradient id="cl" cx="145.96" cy="-8798.12" fx="145.96" fy="-8798.12" r=".18" gradientTransform="translate(8818.83 -107.44) rotate(90) scale(1 -1)" xlink:href="#c"/><radialGradient id="cm" cx="135.26" cy="-8802.92" fx="135.26" fy="-8802.92" r=".18" gradientTransform="translate(8818.83 -107.44) rotate(90) scale(1 -1)" xlink:href="#c"/><radialGradient id="cn" cx="136.75" cy="-8805.13" fx="136.75" fy="-8805.13" r=".18" gradientTransform="translate(8818.83 -107.44) rotate(90) scale(1 -1)" xlink:href="#c"/><radialGradient id="co" cx="114.93" cy="-8775.24" fx="114.93" fy="-8775.24" r=".18" gradientTransform="translate(8818.83 -107.44) rotate(90) scale(1 -1)" xlink:href="#c"/><radialGradient id="cp" cx="114.2" cy="-8778.27" fx="114.2" fy="-8778.27" r=".18" gradientTransform="translate(8818.83 -107.44) rotate(90) scale(1 -1)" xlink:href="#c"/><radialGradient id="cq" cx="117.34" cy="-8776.7" fx="117.34" fy="-8776.7" r=".18" gradientTransform="translate(8818.83 -107.44) rotate(90) scale(1 -1)" xlink:href="#c"/><radialGradient id="cr" cx="116.08" cy="-8786.01" fx="116.08" fy="-8786.01" r=".18" gradientTransform="translate(8818.83 -107.44) rotate(90) scale(1 -1)" xlink:href="#c"/><radialGradient id="cs" cx="123.92" cy="-8796.16" fx="123.92" fy="-8796.16" r=".18" gradientTransform="translate(8818.83 -107.44) rotate(90) scale(1 -1)" xlink:href="#c"/><radialGradient id="ct" cx="127.17" cy="-8795.74" fx="127.17" fy="-8795.74" r=".18" gradientTransform="translate(8818.83 -107.44) rotate(90) scale(1 -1)" xlink:href="#c"/><radialGradient id="cu" cx="126.43" cy="-8798.25" fx="126.43" fy="-8798.25" r=".18" gradientTransform="translate(8818.83 -107.44) rotate(90) scale(1 -1)" xlink:href="#c"/><radialGradient id="cv" cx="145.18" cy="-8796.79" fx="145.18" fy="-8796.79" r=".36" gradientTransform="translate(8818.83 -107.44) rotate(90) scale(1 -1)" xlink:href="#c"/><radialGradient id="cw" cx="117.84" cy="-8787.73" fx="117.84" fy="-8787.73" r=".36" gradientTransform="translate(8818.83 -107.44) rotate(90) scale(1 -1)" xlink:href="#c"/><radialGradient id="cx" cx="117.08" cy="-8774.86" fx="117.08" fy="-8774.86" r=".36" gradientTransform="translate(8818.83 -107.44) rotate(90) scale(1 -1)" xlink:href="#c"/><radialGradient id="cy" cx="128.25" cy="-8796.87" fx="128.25" fy="-8796.87" r=".36" gradientTransform="translate(8818.83 -107.44) rotate(90) scale(1 -1)" xlink:href="#c"/><radialGradient id="cz" cx="146.03" cy="-8791.28" fx="146.03" fy="-8791.28" r=".36" gradientTransform="translate(8818.83 -107.44) rotate(90) scale(1 -1)" xlink:href="#c"/><linearGradient id="da" x1="27.29" y1="48.28" x2="65.92" y2="48.28" gradientTransform="translate(0 82) scale(1 -1)" gradientUnits="userSpaceOnUse"><stop offset="0" stop-color="#bb2126" stop-opacity=".7"/><stop offset="0" stop-color="#b62025" stop-opacity=".7"/><stop offset="0" stop-color="#a41e23" stop-opacity=".7"/><stop offset=".02" stop-color="#8c1922" stop-opacity=".7"/><stop offset=".23" stop-color="#91212c" stop-opacity=".67"/><stop offset=".44" stop-color="#a1424d" stop-opacity=".57"/><stop offset=".66" stop-color="#bd7a80" stop-opacity=".42"/><stop offset=".88" stop-color="#e4c8ca" stop-opacity=".2"/><stop offset="1" stop-color="#fff" stop-opacity=".05"/></linearGradient><linearGradient id="db" x1="20.23" y1="24.9" x2="33.85" y2="24.9" gradientTransform="translate(0 82) scale(1 -1)" gradientUnits="userSpaceOnUse"><stop offset="0" stop-color="#fff" stop-opacity=".9"/><stop offset=".18" stop-color="#f8f7e4" stop-opacity=".68"/><stop offset=".39" stop-color="#f3f4c8" stop-opacity=".44"/><stop offset=".59" stop-color="#eeedaf" stop-opacity=".25"/><stop offset=".77" stop-color="#eaea9e" stop-opacity=".11"/><stop offset=".91" stop-color="#e9e993" stop-opacity=".03"/><stop offset="1" stop-color="#e9e991" stop-opacity="0"/></linearGradient></defs><circle cx="40.35" cy="40.36" r="39.85" style="fill:#b6c1e2; stroke-width:0px;"/><path d="M77.01,44.46c-.35,3.11-1.09,6.19-2.22,9.15-1.8,4.67-4.58,9.05-8.34,12.82-.85.85-1.72,1.64-2.62,2.38-2.65,2.19-5.53,3.95-8.56,5.28-2.1.92-4.26,1.64-6.46,2.16-8.09,1.89-16.69,1.01-24.3-2.63-3.67-1.76-7.12-4.16-10.16-7.2-4.44-4.44-7.51-9.72-9.21-15.34-.19-.63-.36-1.26-.52-1.89-.22-.89-.4-1.79-.55-2.69-.6-3.54-.67-7.15-.23-10.71.05-.42.11-.85.18-1.27.79-4.93,2.58-9.73,5.38-14.07.42-.66.86-1.3,1.33-1.93.9-1.21,1.88-2.39,2.94-3.51.22-.24.45-.47.68-.7,6.15-6.15,13.94-9.67,21.96-10.57,2.59-.29,5.21-.3,7.8-.04,8.16.82,16.09,4.36,22.34,10.6,8.24,8.23,11.76,19.4,10.57,30.14h0Z" style="fill:#181631; stroke-width:0px;"/><circle cx="35.45" cy="43.61" r="29.97" style="fill:url(#b); stroke-width:0px;"/><path d="M63.82,68.81c-2.65,2.19-5.53,3.95-8.56,5.28-2.1.92-4.26,1.64-6.46,2.16-8.09,1.89-16.69,1.01-24.3-2.63-3.67-1.76-7.12-4.16-10.16-7.2-4.44-4.44-7.51-9.72-9.21-15.34-.19-.63-.36-1.26-.52-1.89-.22-.89-.4-1.79-.55-2.69-.6-3.54-.67-7.15-.23-10.71.05-.42.11-.85.18-1.27.79-4.93,2.58-9.73,5.38-14.07.42-.66.86-1.3,1.33-1.93.9-1.21,1.88-2.39,2.94-3.51,4.74,2.3,5.02,7.24,5.02,7.24,3.6-.34,5.53,2.93,5.53,2.93h0c5.82.31,6.01,5.9,6.01,5.9-.09.99-.35,1.84-.68,2.56-.9,1.94-2.33,2.89-2.33,2.89,3.29,7.18-3.15,9.67-3.15,9.67,6.56,2.05,4,8.89,4,8.89,2.87,1.52,2.53,3.21,2.53,3.21,0,0,3.89-3.19,9.29-3.29,1.63-.03,3.39.22,5.22.92,5.78,2.21,7.89,8.2,8.6,11.28.27,1.14.34,1.88.34,1.88,0,0,3.71-3.88,7.26-2.53,1.25.47,2.04,1.33,2.53,2.23h0Z" style="fill:#fff; stroke-width:0px;"/><path d="M55.26,74.09c-2.1.92-4.26,1.64-6.46,2.16-8.09,1.89-16.69,1.01-24.3-2.63-3.67-1.76-7.12-4.16-10.16-7.2-4.44-4.44-7.51-9.72-9.21-15.34-.19-.63-.36-1.26-.52-1.89-.22-.89-.4-1.79-.55-2.69-.6-3.54-.67-7.15-.23-10.71.05-.42.11-.85.18-1.27.79-4.93,2.58-9.73,5.38-14.07.53,1.02.98,2.21,1.32,3.58,7.3.43,4.83,6.25,4.83,6.25h0c.1-.06,3.49-1.89,5.66,2.14,2.08,6.44-2.59,9.57-2.59,9.57,4.5,5.92-1.04,8.87-1.04,8.87,6.92,4.52,1.9,10.27,1.9,10.27,2.94,1.57,2.59,3.31,2.59,3.31,0,0,6.75-5.57,14.88-2.44,8.13,3.13,9.17,13.57,9.17,13.57,0,0,3.81-4,7.44-2.61.71.27,1.27.66,1.72,1.12h0Z" style="fill:#fff; stroke-width:0px;"/><path d="M23.57,67.93c-.17-.17-.42.09-.26.26s.42-.09.26-.26h0Z" style="fill:url(#c); stroke-width:0px;"/><path d="M32.25,66.59c-.17-.17-.42.09-.26.26.17.17.42-.09.26-.26h0Z" style="fill:url(#d); stroke-width:0px;"/><path d="M36.99,63.31c-.17-.17-.42.09-.26.26s.42-.09.26-.26h0Z" style="fill:url(#e); stroke-width:0px;"/><path d="M47.95,67.48c-.17-.17-.42.09-.26.26s.42-.09.26-.26h0Z" style="fill:url(#f); stroke-width:0px;"/><path d="M48.45,64.87c-.17-.17-.42.09-.26.26s.42-.09.26-.26h0Z" style="fill:url(#g); stroke-width:0px;"/><path d="M36.02,51.36c-.17-.17-.42.09-.26.26.17.17.42-.09.26-.26h0Z" style="fill:url(#h); stroke-width:0px;"/><path d="M39.5,48.33c-.17-.17-.42.09-.26.26s.42-.09.26-.26h0Z" style="fill:url(#i); stroke-width:0px;"/><path d="M32.4,45.07c-.17-.17-.42.09-.26.26s.42-.09.26-.26h0Z" style="fill:url(#j); stroke-width:0px;"/><path d="M33.87,43.15c-.17-.17-.42.09-.26.26s.42-.09.26-.26h0Z" style="fill:url(#k); stroke-width:0px;"/><path d="M30.18,34.13c-.17-.17-.42.09-.26.26s.42-.09.26-.26h0Z" style="fill:url(#l); stroke-width:0px;"/><path d="M7.55,53.06c-.17-.17-.42.09-.26.26s.42-.09.26-.26h0Z" style="fill:url(#m); stroke-width:0px;"/><path d="M20.19,35.68c-.17-.17-.42.09-.26.26s.42-.09.26-.26h0Z" style="fill:url(#n); stroke-width:0px;"/><g style="opacity:.5;"><path d="M30.5,43.72c-.33-.33-.85.18-.52.52s.85-.18.52-.52h0Z" style="fill:url(#o); stroke-width:0px;"/><path d="M34.93,44.55c-.33-.33-.85.18-.52.52s.85-.18.52-.52h0Z" style="fill:url(#p); stroke-width:0px;"/><path d="M14.93,42.04c-.33-.33-.85.18-.52.52s.85-.18.52-.52h0Z" style="fill:url(#q); stroke-width:0px;"/><path d="M21.04,36.77c-.33-.33-.85.18-.52.52s.85-.18.52-.52h0Z" style="fill:url(#r); stroke-width:0px;"/><path d="M28.82,34.14c-.33-.33-.85.18-.52.52s.85-.18.52-.52h0Z" style="fill:url(#s); stroke-width:0px;"/><path d="M29.24,30.85c-.33-.33-.85.18-.52.52s.85-.18.52-.52h0Z" style="fill:url(#t); stroke-width:0px;"/><path d="M36.72,64.67c-.33-.33-.85.18-.52.52.33.33.85-.18.52-.52h0Z" style="fill:url(#u); stroke-width:0px;"/><path d="M35.82,54.31c-.33-.33-.85.18-.52.52s.85-.18.52-.52h0Z" style="fill:url(#v); stroke-width:0px;"/><path d="M38.22,52.52c-.33-.33-.85.18-.52.52s.85-.18.52-.52h0Z" style="fill:url(#w); stroke-width:0px;"/><path d="M32.23,67.96c-.33-.33-.85.18-.52.52s.85-.18.52-.52h0Z" style="fill:url(#x); stroke-width:0px;"/></g><path d="M7.44,28.84c-.17-.17-.42.09-.26.26.17.17.42-.09.26-.26h0Z" style="fill:url(#y); stroke-width:0px;"/><path d="M12.17,25.56c-.17-.17-.42.09-.26.26s.42-.09.26-.26h0Z" style="fill:url(#z); stroke-width:0px;"/><path d="M23.13,29.73c-.17-.17-.42.09-.26.26s.42-.09.26-.26h0Z" style="fill:url(#aa); stroke-width:0px;"/><path d="M23.64,27.12c-.17-.17-.42.09-.26.26.17.17.42-.09.26-.26h0Z" style="fill:url(#ab); stroke-width:0px;"/><path d="M17.93,63.68c-.17-.17-.42.09-.26.26.17.17.42-.09.26-.26h0Z" style="fill:url(#ac); stroke-width:0px;"/><path d="M20.6,62.05c-.17-.17-.42.09-.26.26.17.17.42-.09.26-.26h0Z" style="fill:url(#ad); stroke-width:0px;"/><path d="M17.27,60.94c-.17-.17-.42.09-.26.26.17.17.42-.09.26-.26h0Z" style="fill:url(#ae); stroke-width:0px;"/><path d="M24.74,55.25c-.17-.17-.42.09-.26.26s.42-.09.26-.26h0Z" style="fill:url(#af); stroke-width:0px;"/><path d="M26.36,42.53c-.17-.17-.42.09-.26.26s.42-.09.26-.26h0Z" style="fill:url(#ag); stroke-width:0px;"/><path d="M23.78,40.53c-.17-.17-.42.09-.26.26.17.17.42-.09.26-.26h0Z" style="fill:url(#ah); stroke-width:0px;"/><path d="M26.07,39.27c-.17-.17-.42.09-.26.26s.42-.09.26-.26h0Z" style="fill:url(#ai); stroke-width:0px;"/><g style="opacity:.5;"><path d="M11.91,26.92c-.33-.33-.85.18-.52.52s.85-.18.52-.52h0Z" style="fill:url(#aj); stroke-width:0px;"/><path d="M24.84,52.66c-.33-.33-.85.18-.52.52s.85-.18.52-.52h0Z" style="fill:url(#ak); stroke-width:0px;"/><path d="M16.28,62.3c-.33-.33-.85.18-.52.52s.85-.18.52-.52h0Z" style="fill:url(#al); stroke-width:0px;"/><path d="M23.94,38.83c-.33-.33-.85.18-.52.52s.85-.18.52-.52h0Z" style="fill:url(#am); stroke-width:0px;"/><path d="M7.42,30.21c-.33-.33-.85.18-.52.52s.85-.18.52-.52h0Z" style="fill:url(#an); stroke-width:0px;"/></g><path d="M14.12,21.74c.18-.15-.06-.43-.24-.28-.18.15.06.43.24.28h0Z" style="fill:url(#ao); stroke-width:0px;"/><path d="M17.03,26.72c.18-.15-.06-.43-.24-.28-.18.15.06.43.24.28h0Z" style="fill:url(#ap); stroke-width:0px;"/><path d="M12.01,37.32c.18-.15-.06-.43-.24-.28s.06.43.24.28h0Z" style="fill:url(#aq); stroke-width:0px;"/><path d="M14.58,38.02c.18-.15-.06-.43-.24-.28s.06.43.24.28h0Z" style="fill:url(#ar); stroke-width:0px;"/><path d="M29.01,26.69c.18-.15-.06-.43-.24-.28-.18.15.06.43.24.28h0Z" style="fill:url(#as); stroke-width:0px;"/><path d="M31.76,30.39c.18-.15-.06-.43-.24-.28-.18.15.06.43.24.28h0Z" style="fill:url(#at); stroke-width:0px;"/><path d="M35.56,23.57c.18-.15-.06-.43-.24-.28-.18.15.06.43.24.28h0Z" style="fill:url(#au); stroke-width:0px;"/><path d="M37.37,25.19c.18-.15-.06-.43-.24-.28-.18.15.06.43.24.28h0Z" style="fill:url(#av); stroke-width:0px;"/><path d="M46.65,22.21c.18-.15-.06-.43-.24-.28-.18.15.06.43.24.28h0Z" style="fill:url(#aw); stroke-width:0px;"/><path d="M45.88,12.14c.18-.15-.06-.43-.24-.28-.18.15.06.43.24.28h0Z" style="fill:url(#ax); stroke-width:0px;"/><g style="opacity:.5;"><path d="M37.07,21.78c.36-.3-.12-.86-.47-.55s.12.86.47.55h0Z" style="fill:url(#ay); stroke-width:0px;"/><path d="M35.88,26.13c.36-.3-.12-.86-.47-.55s.12.86.47.55h0Z" style="fill:url(#az); stroke-width:0px;"/><path d="M46.75,20.86c.36-.3-.12-.86-.47-.55s.12.86.47.55h0Z" style="fill:url(#ba); stroke-width:0px;"/><path d="M50,21.54c.36-.3-.12-.86-.47-.55s.12.86.47.55h0Z" style="fill:url(#bb); stroke-width:0px;"/><path d="M15.69,26.35c.36-.3-.12-.86-.47-.55s.12.86.47.55h0Z" style="fill:url(#bc); stroke-width:0px;"/><path d="M26.09,26.26c.36-.3-.12-.86-.47-.55s.12.86.47.55h0Z" style="fill:url(#bd); stroke-width:0px;"/><path d="M27.69,28.79c.36-.3-.12-.86-.47-.55s.12.86.47.55h0Z" style="fill:url(#be); stroke-width:0px;"/><path d="M12.76,21.61c.36-.3-.12-.86-.47-.55s.12.86.47.55h0Z" style="fill:url(#bf); stroke-width:0px;"/></g><path d="M57.8,60.71c.16.17.43-.07.27-.25s-.43.07-.27.25h0Z" style="fill:url(#bg); stroke-width:0px;"/><path d="M58.66,39.86c.16.17.43-.07.27-.25s-.43.07-.27.25h0Z" style="fill:url(#bh); stroke-width:0px;"/><path d="M62.18,43.47c.16.17.43-.07.27-.25s-.43.07-.27.25h0Z" style="fill:url(#bi); stroke-width:0px;"/><path d="M49.07,61.67c.16.17.43-.07.27-.25s-.43.07-.27.25h0Z" style="fill:url(#bj); stroke-width:0px;"/><path d="M44.2,64.74c.16.17.43-.07.27-.25s-.43.07-.27.25h0Z" style="fill:url(#bk); stroke-width:0px;"/><path d="M33.43,60.09c.16.17.43-.07.27-.25s-.43.07-.27.25h0Z" style="fill:url(#bl); stroke-width:0px;"/><path d="M32.81,62.68c.16.17.43-.07.27-.25s-.43.07-.27.25h0Z" style="fill:url(#bm); stroke-width:0px;"/><path d="M44.64,76.72c.16.17.43-.07.27-.25-.16-.17-.43.07-.27.25h0Z" style="fill:url(#bn); stroke-width:0px;"/><path d="M72.51,40.56c.16.17.43-.07.27-.25s-.43.07-.27.25h0Z" style="fill:url(#bo); stroke-width:0px;"/><path d="M70.06,42.38c.16.17.43-.07.27-.25s-.43.07-.27.25h0Z" style="fill:url(#bp); stroke-width:0px;"/><path d="M40.12,26.4c.16.17.43-.07.27-.25-.16-.17-.43.07-.27.25h0Z" style="fill:url(#bq); stroke-width:0px;"/><path d="M37.38,27.91c.16.17.43-.07.27-.25-.16-.17-.43.07-.27.25h0Z" style="fill:url(#br); stroke-width:0px;"/><path d="M40.66,29.17c.16.17.43-.07.27-.25-.16-.17-.43.07-.27.25h0Z" style="fill:url(#bs); stroke-width:0px;"/><path d="M32.95,34.53c.16.17.43-.07.27-.25s-.43.07-.27.25h0Z" style="fill:url(#bt); stroke-width:0px;"/><path d="M30.76,47.16c.16.17.43-.07.27-.25s-.43.07-.27.25h0Z" style="fill:url(#bu); stroke-width:0px;"/><path d="M33.26,49.27c.16.17.43-.07.27-.25s-.43.07-.27.25h0Z" style="fill:url(#bv); stroke-width:0px;"/><path d="M30.91,50.43c.16.17.43-.07.27-.25s-.43.07-.27.25h0Z" style="fill:url(#bw); stroke-width:0px;"/><path d="M59.65,36.74c.16.17.43-.07.27-.25s-.43.07-.27.25h0Z" style="fill:url(#bx); stroke-width:0px;"/><g style="opacity:.5;"><path d="M67.67,59.49c.32.35.85-.15.54-.49s-.85.15-.54.49h0Z" style="fill:url(#by); stroke-width:0px;"/><path d="M44.52,63.39c.32.35.85-.15.54-.49s-.85.15-.54.49h0Z" style="fill:url(#bz); stroke-width:0px;"/><path d="M44.96,73.78c.32.35.85-.15.54-.49s-.85.15-.54.49h0Z" style="fill:url(#ca); stroke-width:0px;"/><path d="M42.49,75.47c.32.35.85-.15.54-.49s-.85.15-.54.49h0Z" style="fill:url(#cb); stroke-width:0px;"/><path d="M32.73,37.11c.32.35.85-.15.54-.49s-.85.15-.54.49h0Z" style="fill:url(#cc); stroke-width:0px;"/><path d="M41.71,27.85c.32.35.85-.15.54-.49s-.85.15-.54.49h0Z" style="fill:url(#cd); stroke-width:0px;"/><path d="M58.59,37.76c.32.35.85-.15.54-.49s-.85.15-.54.49h0Z" style="fill:url(#ce); stroke-width:0px;"/><path d="M69.56,40.34c.32.35.85-.15.54-.49s-.85.15-.54.49h0Z" style="fill:url(#cf); stroke-width:0px;"/><path d="M33.02,50.96c.32.35.85-.15.54-.49s-.85.15-.54.49h0Z" style="fill:url(#cg); stroke-width:0px;"/><path d="M72.45,49.64c.32.35.85-.15.54-.49s-.85.15-.54.49h0Z" style="fill:url(#ch); stroke-width:0px;"/><path d="M63.35,56.25c.32.35.85-.15.54-.49s-.85.15-.54.49h0Z" style="fill:url(#ci); stroke-width:0px;"/><path d="M49.15,60.3c.32.35.85-.15.54-.49-.32-.35-.85.15-.54.49h0Z" style="fill:url(#cj); stroke-width:0px;"/></g><path d="M26.19,39.54c0,.23.36.23.36,0s-.36-.23-.36,0h0Z" style="fill:url(#ck); stroke-width:0px;"/><path d="M20.53,38.52c0,.23.36.23.36,0s-.36-.23-.36,0h0Z" style="fill:url(#cl); stroke-width:0px;"/><path d="M15.72,27.82c0,.23.36.23.36,0s-.36-.23-.36,0h0Z" style="fill:url(#cm); stroke-width:0px;"/><path d="M13.52,29.31c0,.23.36.23.36,0s-.36-.23-.36,0h0Z" style="fill:url(#cn); stroke-width:0px;"/><path d="M43.41,7.49c0,.23.36.23.36,0s-.36-.23-.36,0h0Z" style="fill:url(#co); stroke-width:0px;"/><path d="M40.37,6.76c0,.23.36.23.36,0s-.36-.23-.36,0h0Z" style="fill:url(#cp); stroke-width:0px;"/><path d="M41.94,9.9c0,.23.36.23.36,0s-.36-.23-.36,0h0Z" style="fill:url(#cq); stroke-width:0px;"/><path d="M32.63,8.64c0,.23.36.23.36,0s-.36-.23-.36,0h0Z" style="fill:url(#cr); stroke-width:0px;"/><path d="M22.49,16.48c0,.23.36.23.36,0s-.36-.23-.36,0h0Z" style="fill:url(#cs); stroke-width:0px;"/><path d="M22.91,19.73c0,.23.36.23.36,0s-.36-.23-.36,0h0Z" style="fill:url(#ct); stroke-width:0px;"/><path d="M20.4,18.99c0,.23.36.23.36,0s-.36-.23-.36,0h0Z" style="fill:url(#cu); stroke-width:0px;"/><g style="opacity:.5;"><path d="M21.67,37.74c0,.47.73.47.73,0s-.73-.47-.73,0h0Z" style="fill:url(#cv); stroke-width:0px;"/><path d="M30.73,10.4c0,.47.73.47.73,0s-.73-.47-.73,0h0Z" style="fill:url(#cw); stroke-width:0px;"/><path d="M43.6,9.64c0,.47.73.47.73,0s-.73-.47-.73,0h0Z" style="fill:url(#cx); stroke-width:0px;"/><path d="M21.59,20.81c0,.47.73.47.73,0s-.73-.47-.73,0h0Z" style="fill:url(#cy); stroke-width:0px;"/><path d="M27.18,38.59c0,.47.73.47.73,0s-.73-.47-.73,0h0Z" style="fill:url(#cz); stroke-width:0px;"/></g><path d="M46.96,52.4h0c-.03.08-.07.17-.1.25.03-.08.06-.17.1-.25h0Z" style="fill:#d71f26; stroke-width:0px;"/><path d="M54.25,53.87c-1.12.72-2.34,1.32-3.49,1.8-1.8-.89-3.17-2.34-3.79-3.28.5-1.27,1.16-2.64,1.98-3.88.04-.06.22-.32.31-.45,0,0,0,0,0,0,.46-.78-.66-1.7-1.15-1.35-.01,0-.03.02-.04.02,1.52-1.21,3.1-2.55,4.66-4.03-.42.48-.84,1.16-.51,1.64.1.15.2.24.32.3,1.7-1.1,3.51-1.21,5.21.5,2.99,3.01.29,6.28-3.49,8.72h0Z" style="fill:#d71f26; stroke-width:0px;"/><path d="M33.82,54.98c.19,1.35-.18,2.71-1.01,3.78-3.35,4.22-12.57,6.09-12.57,6.09,0,0-.28-9.4,3.07-13.62.85-1.06,2.1-1.72,3.45-1.85l7.06,5.6h0Z" style="fill:#e9e991; stroke-width:0px;"/><path d="M32.35,53.81c.11.79-.1,1.58-.59,2.21-1.96,2.46-7.33,3.55-7.33,3.55,0,0-.17-5.48,1.79-7.95.5-.62,1.23-1.01,2.02-1.08l4.12,3.27h0Z" style="fill:#fff; isolation:isolate; opacity:.85; stroke-width:0px;"/><path d="M37.58,53.78c-.38.21-.59.32-.61.33l-9.68-7.68s.07-.26.18-.67c.47-1.69,1.87-6.35,4.46-11.82h0c.83-1.76,1.78-3.6,2.87-5.45h0c2.01-3.45,4.48-6.93,7.46-9.98,4.45-4.57,8.76-6.99,12.36-8.2.56,2.2,2.04,4.46,4.26,6.22,2.22,1.77,4.75,2.69,7.03,2.74-.35,3.79-1.73,8.53-5.17,13.9-7.39,11.54-20.21,18.99-23.17,20.6h0Z" style="fill:#d71f26; stroke-width:0px;"/><path d="M65.92,19.28c-2.27-.05-4.8-.98-7.03-2.74-2.22-1.77-3.7-4.02-4.26-6.22.67-.23,1.3-.4,1.92-.55.37,1.82,1.6,3.78,3.51,5.3,1.91,1.52,4.1,2.28,5.96,2.22,0,.64-.03,1.3-.1,2h0Z" style="fill:#5e69af; stroke-width:0px;"/><path d="M66.02,17.28c-1.86.06-4.04-.7-5.96-2.22-1.91-1.52-3.15-3.48-3.51-5.3,4.15-.98,7.05-.34,7.63.11.58.46,1.86,3.14,1.84,7.41h0Z" style="fill:#2a2765; stroke-width:0px;"/><path d="M36.99,30.36s-5.26,4.35-5.06,3.58h0c.83-1.76,1.78-3.6,2.87-5.45h0c.27-.38.44-.73.44-.73l1.74,2.61h0Z" style="fill:#d71f26; stroke-width:0px;"/><path d="M31.95,33.9c.23-.55-.93-1.44-1.58-.81,0,0,0,0,0,0-.1.11-.31.34-.37.4-.93.98-2,1.86-3.04,2.6-1.94-.56-3.39-1.86-4.31-2.93.2-1.18.5-2.43.93-3.62,1.52-4.23,4.08-7.6,7.7-5.38,2.05,1.26,2.36,3.06,1.67,4.96.08.09.2.18.37.24.55.21,1.11-.35,1.49-.87-1.08,1.85-2.04,3.69-2.87,5.45,0-.01,0-.03.01-.04h0Z" style="fill:#c42126; stroke-width:0px;"/><path d="M64.12,9.8c-1,.1-5.07-.14-8.4,1.28-.56.24-1.15.51-1.75.81-7.64,3.83-16.92,13.62-24.27,35.6l-2.22-1.76c.47-1.69,1.87-6.35,4.46-11.82h0c.83-1.76,1.78-3.6,2.87-5.45,0,0,0,0,0,0,2.01-3.44,4.48-6.92,7.46-9.97,4.45-4.57,8.76-6.99,12.36-8.2.67-.23,1.3-.4,1.92-.55,4.01-.95,6.85-.39,7.56.07h0Z" style="fill:#ecf0c9; isolation:isolate; opacity:.62; stroke-width:0px;"/><path d="M26.97,36.09c-2.3,1.65-4.44,2.61-4.59,2.52-.15-.09-.22-2.56.28-5.45.92,1.08,2.38,2.38,4.31,2.93Z" style="fill:#b6c1e2; stroke-width:0px;"/><path d="M50.76,55.67c-.05.02-.1.04-.15.06-.05.02-.11.04-.16.07-.43.17-.86.33-1.26.47-.1.04-.2.07-.3.1-.39.13-.76.24-1.11.34-.04.01-.08.02-.13.04-.04.01-.08.02-.12.03s-.08.02-.12.03c-.36.09-.67.17-.93.22-.03,0-.06.01-.09.02-.13.02-.24.04-.33.06-.02,0-.05,0-.07,0-.17.02-.28.02-.3,0-.04-.04-.02-.35.08-.84.02-.11.05-.22.07-.34.02-.1.05-.21.08-.32.02-.07.04-.15.06-.23,0-.01,0-.02,0-.03.04-.15.08-.31.13-.47.03-.09.05-.18.08-.27.04-.14.08-.28.13-.42,0,0,0-.01,0-.02.02-.06.04-.12.06-.18.04-.12.08-.24.12-.36.02-.07.05-.14.07-.21.02-.06.05-.13.07-.2.07-.18.14-.37.21-.56.03-.08.06-.17.1-.25.62.94,1.99,2.39,3.79,3.28h0Z" style="fill:#b6c1e2; stroke-width:0px;"/><path d="M60.75,33.18c3.44-5.37,4.82-10.12,5.17-13.9-2.27-.05-4.8-.98-7.03-2.74-2.22-1.77-3.7-4.02-4.26-6.22-3.61,1.2-7.92,3.63-12.36,8.2-2.98,3.05-5.45,6.53-7.46,9.97,0,0,0,0,0,0-1.08,1.85-2.04,3.69-2.87,5.45h0c-2.59,5.47-3.99,10.13-4.46,11.82-.11.41-.18.65-.18.67l9.68,7.68s.24-.12.61-.33c1.55-.85,5.82-3.3,10.59-7.11.52-.22,1.52.65,1.08,1.39h0c-.09.13-.26.39-.31.45-2.4,3.65-3.43,8.4-3.25,8.59.18.18,4.89-.87,8.56-3.24,3.77-2.44,6.47-5.7,3.49-8.72-1.7-1.71-3.51-1.6-5.21-.5-.11-.06-.22-.15-.32-.3-.31-.45.03-1.07.42-1.54,2.93-2.77,5.79-6,8.12-9.63h0Z" style="fill:url(#da); isolation:isolate; opacity:.61; stroke-width:0px;"/><circle cx="52.76" cy="24.27" r="5.84" style="fill:#b6c1e2; stroke-width:0px;"/><circle cx="52.78" cy="24.25" r="4.92" style="fill:#5e69af; stroke-width:0px;"/><path d="M60.32,26.87c.17-.57-.73-1.27-1.57-1.78.2-1.48-.16-2.97-1.03-4.19-1.03-1.46-2.64-2.37-4.42-2.5-.17-.01-.35-.02-.52-.01-.9.01-1.78.23-2.58.64-1.07-.94-1.88-1.31-2.29-1.03-.42.29-.33,1.26.26,2.71-.12.15-.23.31-.33.47-.09.15-.18.31-.26.47-1.44-.08-2.31.13-2.46.61-.15.48.5,1.17,1.83,1.93,0,.17,0,.35.01.52.07,1.08.44,2.12,1.07,3.01.69.97,1.62,1.7,2.72,2.12.14.05.28.1.43.14.75.22,1.51.3,2.29.22.4-.04.8-.12,1.18-.24h0c.48.43,1.07.88,1.57,1.07.3.11.56.13.75,0,.48-.34.22-1.42-.11-2.34.4-.36.75-.77,1.03-1.23,1.02.06,2.25,0,2.43-.6h0ZM58.5,26.17c.07-.22.13-.44.18-.67.78.49,1.18.93,1.1,1.21-.09.28-.69.42-1.67.39.16-.29.29-.6.39-.93h0ZM56.54,28.97c.3.86.34,1.44.11,1.61-.25.17-.82-.11-1.58-.76.43-.17.84-.39,1.22-.66.09-.06.17-.12.25-.19h0ZM48.45,20.37c-.4-1.03-.48-1.72-.22-1.91.26-.18.84.1,1.6.76-.13.08-.25.16-.38.24-.37.26-.71.56-1.01.9h0ZM48.14,21.36c.06-.1.12-.19.19-.28.57,1.31,1.45,2.86,2.52,4.4-1.37-.48-2.61-1.02-3.54-1.52.06-.91.34-1.81.83-2.59h0ZM45.67,22.43c.09-.3.72-.44,1.74-.39-.23.55-.37,1.13-.43,1.73-.93-.55-1.4-1.03-1.31-1.33h0ZM56.09,28.87c-.41.29-.85.52-1.31.68-.86-.79-1.86-1.94-2.86-3.29.09.03.17.05.26.08,1.95.59,3.82.98,5.31,1.1-.37.55-.85,1.03-1.4,1.43h0ZM52.78,18.73c.16,0,.32,0,.49.01.56.04,1.09.16,1.6.35,1.02.39,1.92,1.08,2.57,2,.84,1.2,1.18,2.65.95,4.09-.05.3-.12.59-.21.88-.12.35-.27.69-.45,1.01-1.44-.11-3.39-.51-5.43-1.13-.27-.08-.53-.17-.79-.25-.08-.12-.17-.24-.25-.36-1.14-1.64-2.1-3.31-2.66-4.62.31-.37.66-.69,1.06-.97.92-.65,2-1,3.12-1.02h0ZM53.43,29.87c-.73.07-1.45,0-2.16-.21-1.21-.36-2.23-1.1-2.96-2.13-.59-.84-.94-1.82-1.01-2.83,0-.1,0-.21-.01-.31.77.41,1.7.83,2.71,1.22.4.15.82.3,1.24.44,1.04,1.45,2.13,2.72,3.1,3.64-.3.08-.61.14-.92.17h0Z" style="fill:#b6c1e2; stroke-width:0px;"/><path d="M56.26,19.44c-.41.02-.94.09-1.53.23-2.1.51-5.03,2.03-6.5,6.48-.14.42-.26.86-.37,1.32-.78-1.23-1.11-2.74-.82-4.28.61-3.22,3.72-5.33,6.94-4.72.85.16,1.62.5,2.28.96h0Z" style="fill:#ecf0c9; isolation:isolate; opacity:.62; stroke-width:0px;"/><polygon points="26.92 45.32 37.73 53.9 34.91 56.06 25.45 48.56 26.92 45.32" style="fill:#1a1848; stroke-width:0px;"/><path d="M31.78,49.17s-.7,1.42-1.43,3.27l-4.89-3.88,1.47-3.24,4.85,3.85h0Z" style="fill:#ecf0c9; stroke-width:0px;"/><path d="M33.8,55.22c.19,1.35-.15,2.41-.99,3.48-3.35,4.22-12.57,6.09-12.57,6.09,0,0-.28-9.4,3.07-13.62.94-1.03,1.87-1.63,3.22-1.75l7.27,5.81h0Z" style="fill:url(#db); isolation:isolate; opacity:.62; stroke-width:0px;"/></svg>