<svg xmlns="http://www.w3.org/2000/svg" viewBox="0 0 140 40"><defs><style>.a{fill:#fff;}</style></defs><path class="a" d="M1,10.08H5.12L9.59,17l4.69-6.88h3.86l-6.51,9.41,7,10.12H14.45L9.51,22.15l-5,7.46H.55l7-10.12Z"/><path class="a" d="M22.78,23.35A5.11,5.11,0,0,0,23,24.92a3.63,3.63,0,0,0,.71,1.33,3.22,3.22,0,0,0,1.2.91,3.67,3.67,0,0,0,1.7.34,4.11,4.11,0,0,0,2.24-.58,3.22,3.22,0,0,0,1.24-1.79h3a5.71,5.71,0,0,1-.87,2,5.74,5.74,0,0,1-3.36,2.45,7.83,7.83,0,0,1-2.24.33,7.42,7.42,0,0,1-3-.54,6,6,0,0,1-2.19-1.53,7.32,7.32,0,0,1-1.37-2.36,9.93,9.93,0,0,1-.46-3,8.31,8.31,0,0,1,.5-2.86,7.37,7.37,0,0,1,1.37-2.37,6.67,6.67,0,0,1,10.28.33,7.25,7.25,0,0,1,1.29,2.66,8.32,8.32,0,0,1,.2,3.07H22.78Zm7.34-2.08a4.09,4.09,0,0,0-.33-1.41,3.75,3.75,0,0,0-.7-1.2,3.5,3.5,0,0,0-2.57-1.16,3.55,3.55,0,0,0-1.5.29,4,4,0,0,0-1.16.79,4.17,4.17,0,0,0-.79,1.2,4.56,4.56,0,0,0-.33,1.49Z"/><path class="a" d="M35.8,15.47h3v2.07l0,0a5.73,5.73,0,0,1,1.87-1.86,4.93,4.93,0,0,1,2.57-.67A5.32,5.32,0,0,1,47,16.26a4.5,4.5,0,0,1,1.37,3.6v9.71H45.18V20.74a3.92,3.92,0,0,0-.71-2.41,2.62,2.62,0,0,0-2.07-.75,3.27,3.27,0,0,0-2.53,1.08,4,4,0,0,0-.71,1.2,4.47,4.47,0,0,0-.24,1.46v8.33H35.8Z"/><path class="a" d="M53.47,25.71a4.25,4.25,0,0,0,1.37,1.62,5.68,5.68,0,0,0,2.07.87,12.2,12.2,0,0,0,2.53.25,8.55,8.55,0,0,0,1.7-.21,5.92,5.92,0,0,0,1.7-.7,4.67,4.67,0,0,0,1.33-1.25,3.26,3.26,0,0,0,.54-1.82,2.53,2.53,0,0,0-.37-1.41,3.07,3.07,0,0,0-1-1,5.1,5.1,0,0,0-1.32-.66A11.56,11.56,0,0,0,60.65,21l-4.4-1.07c-.58-.17-1.12-.34-1.66-.54a4.1,4.1,0,0,1-1.41-.87,4.44,4.44,0,0,1-1-1.33,4.52,4.52,0,0,1-.38-2,5.58,5.58,0,0,1,.29-1.66,4.83,4.83,0,0,1,1-1.82,6.1,6.1,0,0,1,2.07-1.45,8.68,8.68,0,0,1,3.4-.59,9.94,9.94,0,0,1,2.78.38,6.41,6.41,0,0,1,2.32,1.16,5.32,5.32,0,0,1,1.58,1.91,5.24,5.24,0,0,1,.58,2.65H64a4.79,4.79,0,0,0-.5-2,4.31,4.31,0,0,0-1.21-1.41,4.66,4.66,0,0,0-1.7-.83,6.14,6.14,0,0,0-2-.29,8.47,8.47,0,0,0-1.86.21,4.85,4.85,0,0,0-1.58.66,3.09,3.09,0,0,0-1.08,1.21,4,4,0,0,0-.41,1.82,2.63,2.63,0,0,0,.91,2.07,3.42,3.42,0,0,0,1,.58,9.28,9.28,0,0,0,1.16.38l4.81,1.16a13.26,13.26,0,0,1,2,.66,5.16,5.16,0,0,1,1.61,1,4.3,4.3,0,0,1,1.12,1.45,5,5,0,0,1,.42,2c0,.21,0,.5-.08.87a4.58,4.58,0,0,1-.34,1.16,4.83,4.83,0,0,1-.74,1.25A4.56,4.56,0,0,1,64.17,29a8.12,8.12,0,0,1-2.07.83,12.81,12.81,0,0,1-3,.33,11.47,11.47,0,0,1-3.23-.42,6.75,6.75,0,0,1-2.53-1.2,5.1,5.1,0,0,1-1.62-2.11,7.29,7.29,0,0,1-.5-3.11H53.1A4.26,4.26,0,0,0,53.47,25.71Z"/><path class="a" d="M70.6,25a5.38,5.38,0,0,0,.83,1.78,5,5,0,0,0,1.45,1.33,4.24,4.24,0,0,0,2.12.54,4.19,4.19,0,0,0,3-1A5.35,5.35,0,0,0,79.47,25h1.75a6.85,6.85,0,0,1-2,3.73A6.09,6.09,0,0,1,75,30.07a6.92,6.92,0,0,1-2.91-.58,4.89,4.89,0,0,1-2-1.62,7.33,7.33,0,0,1-1.16-2.36,10.86,10.86,0,0,1-.37-2.87,10.26,10.26,0,0,1,.37-2.73A6.83,6.83,0,0,1,70.1,17.5a5.77,5.77,0,0,1,2-1.7,6.81,6.81,0,0,1,5.85,0,6,6,0,0,1,2,1.78A7.37,7.37,0,0,1,81,20.11,11.51,11.51,0,0,1,81.3,23h-11A8.08,8.08,0,0,0,70.6,25Zm8.63-5.27a4.83,4.83,0,0,0-.92-1.62A4.45,4.45,0,0,0,76.9,17,3.86,3.86,0,0,0,75,16.55a4,4,0,0,0-1.91.41,4.72,4.72,0,0,0-1.41,1.12,5.12,5.12,0,0,0-.91,1.62,7.41,7.41,0,0,0-.46,1.87H79.6A7,7,0,0,0,79.23,19.7Z"/><path class="a" d="M85.36,15.51v3.32h0a5.41,5.41,0,0,1,2.08-2.66,5.2,5.2,0,0,1,3.32-.83v1.75a5.09,5.09,0,0,0-2.16.33,4.67,4.67,0,0,0-1.66,1,4.84,4.84,0,0,0-1.08,1.62,5.58,5.58,0,0,0-.37,2.08v7.5H83.79V15.51Z"/><path class="a" d="M92.91,15.51l4.48,12.4h0l4.44-12.4h1.78L98.3,29.65H96.44L91,15.51Z"/><path class="a" d="M106.76,25a5.59,5.59,0,0,0,.83,1.78A5,5,0,0,0,109,28.08a4.24,4.24,0,0,0,2.12.54,4.19,4.19,0,0,0,3-1,5.37,5.37,0,0,0,1.5-2.61h1.74a6.84,6.84,0,0,1-2,3.73,6.14,6.14,0,0,1-4.19,1.33,6.84,6.84,0,0,1-2.9-.58,4.92,4.92,0,0,1-2-1.62,7.54,7.54,0,0,1-1.16-2.36,10.86,10.86,0,0,1-.37-2.87,10.26,10.26,0,0,1,.37-2.73,7,7,0,0,1,1.16-2.41,5.8,5.8,0,0,1,2-1.7,6.39,6.39,0,0,1,2.9-.66,6.48,6.48,0,0,1,2.94.66,6,6,0,0,1,2,1.78,7.37,7.37,0,0,1,1.08,2.53,11.51,11.51,0,0,1,.29,2.91h-11A11.65,11.65,0,0,0,106.76,25Zm8.63-5.27A4.75,4.75,0,0,0,113.07,17a3.9,3.9,0,0,0-1.87-.41,4,4,0,0,0-1.91.41,4.72,4.72,0,0,0-1.41,1.12A5.32,5.32,0,0,0,107,19.7a7.86,7.86,0,0,0-.46,1.87h9.25A6.61,6.61,0,0,0,115.39,19.7Z"/><path class="a" d="M121.57,15.51v3.32h0a5.39,5.39,0,0,1,2.07-2.66,5.2,5.2,0,0,1,3.32-.83v1.75a5.11,5.11,0,0,0-2.16.33,4.67,4.67,0,0,0-1.66,1,5,5,0,0,0-1.07,1.62,5.58,5.58,0,0,0-.38,2.08v7.5H120V15.51Z"/></svg>