<?xml version="1.0" encoding="utf-8"?>
<!-- Generator: Adobe Illustrator 26.0.2, SVG Export Plug-In . SVG Version: 6.00 Build 0)  -->
<svg version="1.1" xmlns="http://www.w3.org/2000/svg" xmlns:xlink="http://www.w3.org/1999/xlink" x="0px" y="0px"
	 viewBox="0 0 90 30" style="enable-background:new 0 0 90 30;" xml:space="preserve">
<style type="text/css">
	.st0{fill:#545454;}
</style>
<g id="Guides">
</g>
<g id="Image">
</g>
<g id="Paths">
	<g>
		<path class="st0" d="M0.9,7.9h2.6l2.9,4.4l3-4.4h2.5l-4.2,6l4.5,6.5H9.5l-3.2-4.8l-3.2,4.8H0.6l4.5-6.5L0.9,7.9z"/>
		<path class="st0" d="M14.9,16.4c0,0.3,0.1,0.7,0.2,1s0.2,0.6,0.5,0.8c0.2,0.2,0.5,0.5,0.8,0.6c0.3,0.2,0.7,0.2,1.1,0.2
			c0.6,0,1.1-0.1,1.4-0.4c0.4-0.2,0.6-0.6,0.8-1.1h1.9c-0.1,0.5-0.3,0.9-0.6,1.3c-0.3,0.4-0.6,0.7-0.9,1c-0.4,0.3-0.8,0.5-1.2,0.6
			c-0.5,0.1-0.9,0.2-1.4,0.2c-0.7,0-1.4-0.1-1.9-0.3c-0.6-0.2-1-0.6-1.4-1c-0.4-0.4-0.7-0.9-0.9-1.5c-0.2-0.6-0.3-1.2-0.3-1.9
			c0-0.6,0.1-1.2,0.3-1.8c0.2-0.6,0.5-1.1,0.9-1.5c0.4-0.4,0.8-0.8,1.4-1c0.5-0.3,1.2-0.4,1.8-0.4c0.7,0,1.4,0.2,1.9,0.5
			c0.6,0.3,1,0.7,1.4,1.2c0.4,0.5,0.7,1.1,0.8,1.7c0.2,0.6,0.2,1.3,0.1,2L14.9,16.4L14.9,16.4z M19.6,15.1c0-0.3-0.1-0.6-0.2-0.9
			c-0.1-0.3-0.3-0.6-0.5-0.8c-0.2-0.2-0.4-0.4-0.7-0.5c-0.3-0.1-0.6-0.2-0.9-0.2c-0.3,0-0.7,0.1-1,0.2s-0.5,0.3-0.7,0.5
			c-0.2,0.2-0.4,0.5-0.5,0.8c-0.1,0.3-0.2,0.6-0.2,1C14.8,15.1,19.6,15.1,19.6,15.1z"/>
		<path class="st0" d="M23.2,11.4h1.9v1.3l0,0c0.3-0.5,0.7-0.9,1.2-1.2c0.5-0.3,1-0.4,1.6-0.4c1,0,1.8,0.3,2.4,0.8
			c0.6,0.5,0.9,1.3,0.9,2.3v6.2h-2v-5.7c0-0.7-0.2-1.2-0.5-1.5c-0.3-0.3-0.7-0.5-1.3-0.5c-0.3,0-0.6,0.1-0.9,0.2
			c-0.3,0.1-0.5,0.3-0.7,0.5c-0.2,0.2-0.3,0.5-0.5,0.8c-0.1,0.3-0.2,0.6-0.2,0.9v5.3h-2V11.4z"/>
		<path class="st0" d="M34.5,17.9c0.2,0.4,0.5,0.8,0.9,1c0.4,0.3,0.8,0.5,1.3,0.6c0.5,0.1,1.1,0.2,1.6,0.2c0.3,0,0.7-0.1,1.1-0.1
			c0.4-0.1,0.7-0.2,1.1-0.5c0.3-0.2,0.6-0.5,0.8-0.8c0.2-0.3,0.3-0.7,0.3-1.2c0-0.3-0.1-0.7-0.2-0.9c-0.2-0.3-0.4-0.5-0.6-0.6
			c-0.3-0.2-0.5-0.3-0.8-0.4c-0.3-0.1-0.6-0.2-0.9-0.3l-2.8-0.7c-0.4-0.1-0.7-0.2-1.1-0.3c-0.3-0.1-0.7-0.3-0.9-0.6
			c-0.3-0.2-0.5-0.5-0.6-0.8c-0.2-0.3-0.2-0.7-0.2-1.2c0-0.3,0.1-0.7,0.2-1.1C33.7,9.7,34,9.3,34.3,9s0.8-0.7,1.3-0.9
			c0.6-0.2,1.3-0.4,2.2-0.4c0.6,0,1.2,0.1,1.8,0.2c0.6,0.2,1.1,0.4,1.5,0.7c0.4,0.3,0.8,0.7,1,1.2c0.3,0.5,0.4,1,0.4,1.7h-1.2
			c0-0.5-0.1-0.9-0.3-1.2s-0.5-0.7-0.8-0.9S39.5,9,39.1,8.9c-0.4-0.1-0.8-0.2-1.3-0.2c-0.4,0-0.8,0.1-1.2,0.1s-0.7,0.2-1,0.4
			c-0.3,0.2-0.5,0.5-0.7,0.8c-0.2,0.3-0.3,0.7-0.3,1.2c0,0.3,0.1,0.6,0.2,0.8c0.1,0.2,0.2,0.4,0.4,0.6c0.2,0.2,0.4,0.3,0.6,0.4
			c0.2,0.1,0.5,0.2,0.7,0.2l3.1,0.7c0.5,0.1,0.9,0.3,1.3,0.4c0.4,0.2,0.7,0.4,1,0.6c0.3,0.2,0.5,0.6,0.7,0.9
			c0.2,0.4,0.3,0.8,0.3,1.3c0,0.1,0,0.3-0.1,0.6c0,0.2-0.1,0.5-0.2,0.7c-0.1,0.3-0.3,0.5-0.5,0.8s-0.5,0.5-0.8,0.7
			c-0.4,0.2-0.8,0.4-1.3,0.5s-1.2,0.2-1.9,0.2c-0.7,0-1.4-0.1-2.1-0.3c-0.6-0.2-1.2-0.4-1.6-0.8c-0.5-0.3-0.8-0.8-1-1.4
			c-0.2-0.6-0.3-1.2-0.3-2h1.2C34.2,16.9,34.3,17.5,34.5,17.9z"/>
		<path class="st0" d="M45.5,17.4c0.1,0.4,0.3,0.8,0.5,1.1s0.6,0.6,0.9,0.8c0.4,0.2,0.8,0.3,1.4,0.3c0.8,0,1.5-0.2,1.9-0.6
			s0.8-1,1-1.7h1.1c-0.2,1-0.7,1.8-1.3,2.4c-0.6,0.6-1.5,0.8-2.7,0.8c-0.7,0-1.4-0.1-1.9-0.4c-0.5-0.2-1-0.6-1.3-1
			c-0.3-0.4-0.6-1-0.7-1.5c-0.2-0.6-0.2-1.2-0.2-1.8c0-0.6,0.1-1.2,0.2-1.8c0.2-0.6,0.4-1.1,0.7-1.5c0.3-0.5,0.8-0.8,1.3-1.1
			c0.5-0.3,1.1-0.4,1.9-0.4c0.7,0,1.4,0.2,1.9,0.4c0.5,0.3,0.9,0.7,1.3,1.1c0.3,0.5,0.6,1,0.7,1.6s0.2,1.2,0.2,1.9h-7
			C45.3,16.6,45.3,17,45.5,17.4z M51,14.1c-0.1-0.4-0.3-0.7-0.6-1c-0.3-0.3-0.6-0.5-0.9-0.7c-0.3-0.2-0.7-0.3-1.2-0.3
			s-0.9,0.1-1.2,0.3c-0.3,0.2-0.7,0.4-0.9,0.7s-0.5,0.6-0.6,1c-0.2,0.4-0.2,0.8-0.3,1.2h5.9C51.2,14.8,51.1,14.4,51,14.1z"/>
		<path class="st0" d="M54.9,11.4v2.1h0c0.3-0.7,0.7-1.3,1.3-1.7c0.6-0.4,1.3-0.6,2.1-0.5v1.1c-0.5,0-1,0.1-1.4,0.2
			c-0.4,0.2-0.8,0.4-1.1,0.7c-0.3,0.3-0.5,0.6-0.7,1c-0.2,0.4-0.2,0.8-0.2,1.3v4.8h-1.1v-9H54.9z"/>
		<path class="st0" d="M59.7,11.4l2.9,7.9h0l2.8-7.9h1.1l-3.4,9H62l-3.5-9H59.7z"/>
		<path class="st0" d="M68.6,17.4c0.1,0.4,0.3,0.8,0.5,1.1c0.2,0.3,0.6,0.6,0.9,0.8c0.4,0.2,0.8,0.3,1.4,0.3c0.8,0,1.5-0.2,1.9-0.6
			c0.5-0.4,0.8-1,1-1.7h1.1c-0.2,1-0.7,1.8-1.3,2.4c-0.6,0.6-1.5,0.8-2.7,0.8c-0.7,0-1.4-0.1-1.9-0.4c-0.5-0.2-1-0.6-1.3-1
			c-0.3-0.4-0.6-1-0.7-1.5c-0.2-0.6-0.2-1.2-0.2-1.8c0-0.6,0.1-1.2,0.2-1.8s0.4-1.1,0.7-1.5c0.3-0.5,0.8-0.8,1.3-1.1
			c0.5-0.3,1.1-0.4,1.9-0.4c0.7,0,1.4,0.2,1.9,0.4c0.5,0.3,0.9,0.7,1.3,1.1c0.3,0.5,0.6,1,0.7,1.6s0.2,1.2,0.2,1.9h-7
			C68.4,16.6,68.5,17,68.6,17.4z M74.1,14.1c-0.1-0.4-0.3-0.7-0.6-1c-0.2-0.3-0.6-0.5-0.9-0.7c-0.3-0.2-0.7-0.3-1.2-0.3
			c-0.5,0-0.9,0.1-1.2,0.3c-0.3,0.2-0.7,0.4-0.9,0.7c-0.2,0.3-0.5,0.6-0.6,1c-0.2,0.4-0.2,0.8-0.3,1.2h5.9
			C74.3,14.8,74.2,14.4,74.1,14.1z"/>
		<path class="st0" d="M78.1,11.4v2.1h0c0.3-0.7,0.7-1.3,1.3-1.7c0.6-0.4,1.3-0.6,2.1-0.5v1.1c-0.5,0-1,0.1-1.4,0.2
			s-0.8,0.4-1.1,0.7c-0.3,0.3-0.5,0.6-0.7,1c-0.2,0.4-0.2,0.8-0.2,1.3v4.8h-1.1v-9H78.1z"/>
	</g>
</g>
</svg>
