<?xml version="1.0" encoding="utf-8"?>
<!-- Generator: Adobe Illustrator 21.0.2, SVG Export Plug-In . SVG Version: 6.00 Build 0)  -->
<svg version="1.1" id="Layer_1" xmlns="http://www.w3.org/2000/svg" xmlns:xlink="http://www.w3.org/1999/xlink" x="0px" y="0px"
	 viewBox="0 0 80.7 80.7" style="enable-background:new 0 0 80.7 80.7;" xml:space="preserve">
<style type="text/css">
	.st0{fill:#E2E2E2;}
	.st1{fill:#515150;}
</style>
<circle class="st0" cx="40.4" cy="40.4" r="40.4"/>
<g>
	<g>
		<path class="st1" d="M20.1,38.3l-8.9-12.6h4.6l6.9,10.2l6.8-10.2H34l-8.9,12.6l9.8,14h-4.7l-7.6-11.5l-7.7,11.5h-4.5L20.1,38.3z"
			/>
		<path class="st1" d="M35.4,52.5h-5.3l-7.5-11.3l-7.5,11.3H10l9.8-14.2l-9.1-12.9h5.2l6.8,10l6.7-10h5.1l-9,12.8L35.4,52.5z
			 M30.3,52h4.1l-9.6-13.8l8.7-12.3h-3.9l-7,10.4l-7-10.4h-4l8.8,12.4L10.9,52h3.9l7.8-11.7L30.3,52z"/>
	</g>
	<g>
		<path class="st1" d="M38.1,44.6c0,0.8,0.2,1.5,0.5,2.1s0.8,1.2,1.3,1.6c0.6,0.5,1.2,0.8,1.9,1.1c0.7,0.2,1.5,0.4,2.3,0.4
			c1.1,0,2-0.2,2.7-0.7c0.8-0.5,1.5-1.1,2.1-1.9l2.6,2c-1.9,2.4-4.5,3.6-7.9,3.6c-1.4,0-2.7-0.2-3.8-0.7s-2.1-1.1-2.9-2
			c-0.8-0.8-1.4-1.8-1.8-3c-0.4-1.1-0.6-2.4-0.6-3.7s0.2-2.6,0.7-3.7c0.5-1.1,1.1-2.1,1.9-3c0.8-0.8,1.8-1.5,2.9-2s2.4-0.7,3.7-0.7
			c1.6,0,2.9,0.3,4,0.8c1.1,0.6,2,1.3,2.7,2.2s1.2,1.9,1.5,3s0.5,2.2,0.5,3.4v1.2C52.4,44.59999,38.1,44.59999,38.1,44.6z
			 M48.8,41.9c0-0.8-0.1-1.4-0.4-2.1s-0.5-1.2-1-1.6c-0.4-0.5-1-0.8-1.6-1.1s-1.4-0.4-2.2-0.4s-1.6,0.2-2.3,0.5s-1.3,0.7-1.7,1.2
			c-0.5,0.5-0.8,1.1-1.1,1.7c-0.3,0.6-0.4,1.2-0.4,1.8C38.1,41.90001,48.8,41.90001,48.8,41.9z"/>
		<path class="st1" d="M43.7,52.9c-1.4,0-2.7-0.2-3.9-0.7s-2.2-1.2-3-2c-0.8-0.9-1.4-1.9-1.9-3c-0.4-1.2-0.7-2.4-0.7-3.8
			c0-1.4,0.2-2.6,0.7-3.8s1.1-2.2,2-3c0.8-0.9,1.8-1.5,3-2s2.4-0.7,3.8-0.7c1.6,0,3,0.3,4.1,0.9c1.1,0.6,2,1.3,2.8,2.2
			c0.7,0.9,1.2,2,1.6,3.1c0.3,1.1,0.5,2.3,0.5,3.5v1.5H38.3c0,0.6,0.2,1.2,0.5,1.8s0.7,1.1,1.3,1.6c0.5,0.4,1.1,0.8,1.8,1
			s1.4,0.4,2.2,0.4c1,0,1.9-0.2,2.6-0.7c0.8-0.5,1.5-1.1,2.1-1.9l0.2-0.2l2.9,2.3l-0.2,0.2C49.8,51.7,47.1,52.9,43.7,52.9z
			 M43.7,34.2c-1.3,0-2.5,0.2-3.6,0.7s-2,1.1-2.8,1.9c-0.8,0.8-1.4,1.8-1.9,2.9c-0.4,1.1-0.7,2.3-0.7,3.6s0.2,2.5,0.6,3.6
			c0.4,1.1,1,2.1,1.8,2.9c0.8,0.8,1.7,1.5,2.8,1.9c1.1,0.5,2.4,0.7,3.7,0.7c3.2,0,5.7-1.1,7.5-3.3L49,47.4c-0.6,0.7-1.3,1.3-2,1.8
			c-0.8,0.5-1.8,0.8-2.9,0.8c-0.8,0-1.6-0.1-2.3-0.4s-1.4-0.6-2-1.1s-1-1-1.4-1.7s-0.5-1.4-0.5-2.2v-0.2h14.3v-1
			c0-1.1-0.2-2.2-0.5-3.3s-0.8-2.1-1.5-2.9c-0.7-0.9-1.6-1.6-2.6-2.1C46.5,34.5,45.2,34.2,43.7,34.2z M49,42.1H37.8v-0.2
			c0-0.6,0.1-1.3,0.4-1.9c0.3-0.6,0.7-1.2,1.2-1.7s1.1-1,1.8-1.3s1.5-0.5,2.4-0.5s1.7,0.1,2.3,0.4c0.7,0.3,1.2,0.7,1.7,1.1
			c0.4,0.5,0.8,1.1,1,1.7c0.2,0.6,0.3,1.4,0.4,2.1L49,42.1z M38.4,41.6h10.1c0-0.6-0.2-1.2-0.3-1.7c-0.2-0.6-0.5-1.1-0.9-1.5
			s-0.9-0.8-1.5-1S44.5,37,43.7,37s-1.5,0.2-2.2,0.4c-0.7,0.3-1.2,0.7-1.7,1.2s-0.8,1-1.1,1.6C38.5,40.7,38.4,41.1,38.4,41.6z"/>
	</g>
	<g>
		<path class="st1" d="M54.5,34.4h3.4v2.7H58c0.4-1,1.2-1.7,2.2-2.3c1.1-0.6,2.3-0.9,3.6-0.9c0.9,0,1.7,0.1,2.5,0.4
			c0.8,0.3,1.5,0.7,2.1,1.2s1.1,1.3,1.4,2.1c0.4,0.9,0.5,1.9,0.5,3.1v11.5h-3.4V41.7c0-0.8-0.1-1.5-0.3-2.1
			c-0.2-0.6-0.5-1.1-0.9-1.4c-0.4-0.4-0.8-0.6-1.3-0.8s-1-0.2-1.5-0.2c-0.7,0-1.4,0.1-2,0.3s-1.1,0.6-1.6,1.1s-0.8,1.1-1.1,1.9
			c-0.3,0.8-0.4,1.6-0.4,2.7v9.2h-3.4v-18H54.5z"/>
		<path class="st1" d="M70.6,52.5h-3.9V41.7c0-0.8-0.1-1.5-0.3-2c-0.2-0.6-0.5-1-0.8-1.3s-0.8-0.6-1.2-0.7c-1.1-0.4-2.3-0.3-3.3,0.1
			c-0.6,0.2-1.1,0.5-1.5,1s-0.8,1.1-1,1.8s-0.4,1.6-0.4,2.6v9.4h-3.9V34.2h3.9v2.2c0.5-0.7,1.1-1.2,1.9-1.7c1.1-0.6,2.4-0.9,3.8-0.9
			c0.9,0,1.7,0.1,2.5,0.4c0.8,0.3,1.5,0.7,2.2,1.3c0.6,0.6,1.1,1.3,1.5,2.2s0.5,2,0.5,3.2C70.59999,40.9,70.59999,52.5,70.6,52.5z
			 M67.2,52h2.9V40.8c0-1.1-0.2-2.1-0.5-3c-0.3-0.8-0.8-1.5-1.3-2c-0.6-0.5-1.2-0.9-2-1.2s-1.6-0.4-2.4-0.4c-1.3,0-2.5,0.3-3.5,0.9
			c-1,0.6-1.7,1.3-2.1,2.2l-0.1,0.1h-0.5v-2.7h-2.9V52h2.9v-8.9c0-1.1,0.1-2,0.4-2.7c0.3-0.8,0.6-1.4,1.1-1.9s1-0.9,1.7-1.1
			c1.1-0.4,2.4-0.5,3.6-0.1c0.5,0.2,1,0.5,1.4,0.8c0.4,0.4,0.7,0.9,1,1.5c0.2,0.6,0.4,1.4,0.4,2.2V52H67.2z"/>
	</g>
</g>
</svg>
